<svg width="410" height="410" viewBox="0 0 410 410" fill="none" xmlns="http://www.w3.org/2000/svg">
<rect width="410" height="410" rx="94" fill="#131416"/>
<g filter="url(#filter0_d_547_544)">
<path d="M288.455 181.805L215.203 116.944C207.432 110.063 197.246 106.551 186.885 107.181C176.524 107.811 166.838 112.53 159.958 120.301L127.528 156.927" stroke="white" stroke-width="23.2271" stroke-linecap="round" stroke-linejoin="round"/>
<path d="M124.171 101.681L127.528 156.926L182.772 153.57" stroke="white" stroke-width="23.2271" stroke-linecap="square"/>
<path d="M121.546 228.083L194.798 292.943C202.569 299.824 212.755 303.336 223.115 302.706C233.476 302.076 243.162 297.357 250.043 289.586L282.473 252.96" stroke="white" stroke-width="23.2271" stroke-linecap="round" stroke-linejoin="round"/>
<path d="M285.83 308.206L282.473 252.961L227.228 256.317" stroke="white" stroke-width="23.2271" stroke-linecap="square"/>
<path d="M301.426 167.154L275.482 196.455C268.318 204.546 269.069 216.913 277.16 224.078L306.461 250.022C314.553 257.186 326.92 256.434 334.084 248.343L360.028 219.043C367.192 210.951 366.441 198.585 358.35 191.42L329.049 165.476C320.958 158.312 308.591 159.063 301.426 167.154Z" stroke="#7A5DDA" stroke-width="23.2271" stroke-linecap="round" stroke-linejoin="round"/>
<path d="M108.574 242.733L134.518 213.432C141.682 205.341 140.931 192.974 132.84 185.81L103.539 159.866C95.4473 152.701 83.0805 153.453 75.9163 161.544L49.9721 190.845C42.8076 198.936 43.559 211.303 51.6504 218.467L80.9513 244.411C89.0424 251.576 101.409 250.825 108.574 242.733Z" stroke="#7A5DDA" stroke-width="23.2271" stroke-linecap="round" stroke-linejoin="round"/>
</g>
<defs>
<filter id="filter0_d_547_544" x="29.4404" y="89.385" width="351.119" height="239.117" filterUnits="userSpaceOnUse" color-interpolation-filters="sRGB">
<feFlood flood-opacity="0" result="BackgroundImageFix"/>
<feColorMatrix in="SourceAlpha" type="matrix" values="0 0 0 0 0 0 0 0 0 0 0 0 0 0 0 0 0 0 127 0" result="hardAlpha"/>
<feOffset dy="4"/>
<feGaussianBlur stdDeviation="2"/>
<feComposite in2="hardAlpha" operator="out"/>
<feColorMatrix type="matrix" values="0 0 0 0 0 0 0 0 0 0 0 0 0 0 0 0 0 0 0.25 0"/>
<feBlend mode="normal" in2="BackgroundImageFix" result="effect1_dropShadow_547_544"/>
<feBlend mode="normal" in="SourceGraphic" in2="effect1_dropShadow_547_544" result="shape"/>
</filter>
</defs>
</svg>
