<svg width="17" height="17" viewBox="0 0 17 17" fill="none" xmlns="http://www.w3.org/2000/svg">
<path d="M8.5 16C12.6422 16 16 12.6422 16 8.5C16 4.35787 12.6422 1 8.5 1C4.35787 1 1 4.35787 1 8.5C1 12.6422 4.35787 16 8.5 16Z" stroke="#E5342F" stroke-width="1.5" stroke-linecap="round" stroke-linejoin="round"/>
<path d="M6.76953 11.9615H10.2311" stroke="#E5342F" stroke-width="1.5" stroke-linecap="round" stroke-linejoin="round"/>
<path d="M8.49955 11.9615V7.92308H7.3457" stroke="#E5342F" stroke-width="1.5" stroke-linecap="round" stroke-linejoin="round"/>
<path d="M8.4994 5.32692C8.34009 5.32692 8.21094 5.19777 8.21094 5.03846C8.21094 4.87915 8.34009 4.75 8.4994 4.75" stroke="#E5342F" stroke-width="1.5" stroke-linecap="round" stroke-linejoin="round"/>
<path d="M8.49902 5.32692C8.65833 5.32692 8.78748 5.19777 8.78748 5.03846C8.78748 4.87915 8.65833 4.75 8.49902 4.75" stroke="#E5342F" stroke-width="1.5" stroke-linecap="round" stroke-linejoin="round"/>
</svg>
