<svg width="353" height="289" viewBox="0 0 353 289" fill="none" xmlns="http://www.w3.org/2000/svg">
<path d="M176.504 288.73C273.985 288.73 353.009 284.116 353.009 278.425C353.009 272.734 273.985 268.12 176.504 268.12C79.0236 268.12 0 272.734 0 278.425C0 284.116 79.0236 288.73 176.504 288.73Z" fill="#F5F5F5"/>
<path d="M283.832 22.7398C278.37 25.7257 276.55 34.5742 279.108 38.4249C269.64 41.2651 274.556 57.5418 290.032 58.4522C305.507 59.3625 317.287 53.7093 309.686 41.6383C317.205 31.5063 313.746 20.1909 307.155 21.4381C300.082 7.2642 276.395 7.68294 283.832 22.7398Z" fill="#263238"/>
<path d="M300.309 59.5446C297.922 59.5371 295.582 58.8827 293.537 57.6511C293.504 57.6392 293.474 57.6203 293.45 57.5957C293.425 57.571 293.406 57.5413 293.395 57.5085C293.383 57.4758 293.378 57.4409 293.382 57.4063C293.385 57.3716 293.396 57.3382 293.414 57.3082C293.431 57.2783 293.455 57.2526 293.484 57.233C293.513 57.2134 293.546 57.2004 293.58 57.1949C293.614 57.1894 293.649 57.1915 293.683 57.2012C293.716 57.2108 293.747 57.2276 293.773 57.2506C296.411 58.8292 299.527 59.409 302.556 58.8844C305.585 58.3599 308.325 56.7658 310.278 54.3921C312.763 51.3152 313.919 46.3812 309.577 41.7749C309.556 41.7528 309.539 41.7268 309.528 41.6983C309.518 41.6699 309.512 41.6396 309.513 41.6092C309.514 41.5787 309.521 41.5488 309.533 41.521C309.546 41.4932 309.564 41.4681 309.586 41.4472C309.608 41.4263 309.634 41.4099 309.662 41.399C309.691 41.3882 309.721 41.383 309.751 41.3839C309.782 41.3847 309.812 41.3916 309.84 41.404C309.867 41.4164 309.892 41.4342 309.913 41.4563C314.41 46.281 313.236 51.47 310.633 54.6834C309.372 56.1987 307.794 57.4192 306.01 58.2591C304.227 59.099 302.281 59.5378 300.309 59.5446Z" fill="#263238"/>
<path d="M277.396 41.4471C277.35 41.4459 277.305 41.4303 277.267 41.4027C277.23 41.375 277.202 41.3365 277.187 41.2924C274.766 34.3557 278.006 25.043 283.732 22.494C283.788 22.4742 283.849 22.4752 283.905 22.497C283.96 22.5187 284.005 22.5597 284.033 22.6124C284.045 22.6399 284.051 22.6695 284.052 22.6995C284.052 22.7295 284.047 22.7593 284.036 22.7872C284.025 22.8151 284.009 22.8406 283.988 22.8621C283.967 22.8837 283.942 22.9009 283.914 22.9128C278.38 25.3707 275.257 34.4012 277.615 41.1194C277.625 41.1481 277.629 41.1785 277.627 41.2088C277.625 41.239 277.617 41.2686 277.603 41.2958C277.59 41.3229 277.571 41.3471 277.548 41.3668C277.525 41.3865 277.498 41.4015 277.469 41.4107L277.396 41.4471Z" fill="#263238"/>
<path d="M275.913 31.4245H275.831C275.775 31.4021 275.73 31.3596 275.705 31.3056C275.68 31.2516 275.676 31.19 275.694 31.1332C277.333 26.7909 280.428 23.4864 283.76 22.5032C283.818 22.4863 283.88 22.4932 283.933 22.5222C283.986 22.5512 284.025 22.6001 284.042 22.658C284.059 22.7159 284.052 22.7782 284.023 22.8312C283.994 22.8841 283.945 22.9233 283.887 22.9402C280.692 23.8505 277.715 27.0822 276.122 31.2971C276.103 31.3361 276.073 31.3688 276.036 31.3914C275.999 31.414 275.956 31.4255 275.913 31.4245Z" fill="#263238"/>
<path d="M288.657 273.573L283.395 273.582L282.512 253.819L291.37 254.037L288.657 273.573Z" fill="#FFB573"/>
<path d="M279.508 103.031C279.508 103.031 279.044 157.879 277.888 181.757C277.842 182.466 277.842 183.178 277.888 183.887C279.618 207.82 282.485 253.819 282.485 253.819L291.397 254.046C291.397 254.046 299.162 217.314 294.356 184.042C302.085 146.409 306.245 112.826 299.244 103.022L279.508 103.031Z" fill="#7A5DDA"/>
<path opacity="0.2" d="M294.438 124.815C291.707 133.973 294.365 163.414 295.776 176.996C297.697 167.182 299.335 157.742 300.546 149.039L294.438 124.815Z" fill="black"/>
<path d="M282.804 271.024H289.64C289.784 271.019 289.925 271.068 290.033 271.163C290.141 271.258 290.209 271.39 290.223 271.534L290.915 277.132C290.918 277.305 290.887 277.478 290.824 277.639C290.76 277.8 290.665 277.947 290.543 278.07C290.422 278.194 290.277 278.293 290.118 278.36C289.958 278.427 289.786 278.461 289.613 278.461C286.6 278.461 285.162 278.243 281.365 278.252C279.026 278.252 277.615 278.489 274.383 278.489C271.151 278.489 271.151 275.393 272.508 275.111C278.598 273.846 279.381 273.145 281.502 271.47C281.874 271.181 282.332 271.024 282.804 271.024Z" fill="#263238"/>
<path d="M285.052 62.667C284.715 64.5514 284.333 66.3083 283.923 68.129C283.514 69.9496 283.095 71.7703 282.613 73.591C281.657 77.2323 280.664 80.8008 279.354 84.4057C278.696 86.2695 277.93 88.0932 277.06 89.8677C276.577 90.8525 276.02 91.799 275.394 92.6988C275.212 92.9446 275.048 93.1813 274.811 93.4544C274.584 93.7443 274.332 94.0124 274.055 94.2555C273.357 94.9151 272.516 95.4043 271.598 95.6847C270.634 95.9758 269.613 96.0166 268.63 95.8031C267.856 95.6238 267.117 95.3161 266.445 94.8927C265.425 94.2396 264.52 93.4212 263.769 92.4713C262.478 90.8647 261.448 89.0644 260.719 87.1367C260.559 86.7269 260.545 86.2744 260.68 85.8556C260.815 85.4368 261.09 85.0773 261.459 84.8377C261.828 84.5981 262.268 84.4931 262.705 84.5405C263.143 84.5878 263.551 84.7846 263.86 85.0976L263.969 85.2159C265.099 86.4093 266.316 87.5169 267.61 88.5295C268.116 88.9159 268.678 89.2228 269.276 89.4399C269.495 89.4945 269.649 89.4945 269.668 89.4399C269.686 89.3852 269.54 89.3488 269.413 89.3579C269.285 89.367 269.203 89.4125 269.24 89.3579C269.283 89.2786 269.331 89.2025 269.385 89.1303C269.476 89.0201 269.555 88.9012 269.622 88.7753C270.004 88.1484 270.338 87.4942 270.624 86.8181C271.286 85.2586 271.87 83.6665 272.371 82.048C273.409 78.7162 274.356 75.2478 275.175 71.7612C275.994 68.2746 276.805 64.7152 277.533 61.2378C277.757 60.2764 278.346 59.4394 279.174 58.9028C280.003 58.3662 281.007 58.1718 281.976 58.3604C282.945 58.5491 283.803 59.106 284.37 59.9142C284.937 60.7225 285.169 61.719 285.016 62.6943L285.052 62.667Z" fill="#FFB573"/>
<path d="M276.777 95.5846C276.777 97.824 311.679 98.261 311.679 95.3024L293.846 90.7507L276.777 95.5846Z" fill="#263238"/>
<path d="M283.186 56.7954C292.388 55.2563 301.79 55.3488 310.96 57.0685C311.498 57.1537 312.013 57.3481 312.473 57.6399C312.933 57.9316 313.328 58.3145 313.634 58.7648C313.94 59.2152 314.151 59.7235 314.253 60.2585C314.355 60.7934 314.347 61.3436 314.228 61.8751C309.294 83.9688 309.577 91.3972 310.05 103.031H279.517C277.988 83.6229 277.178 72.5442 276.978 66.2538C276.814 61.4563 278.461 57.4964 283.186 56.7954Z" fill="#FFB573"/>
<path opacity="0.2" d="M310.869 63.2131C310.677 66.2967 311.085 69.3883 312.071 72.3165C312.462 70.2136 312.917 67.956 313.436 65.489L310.869 63.2131Z" fill="black"/>
<path d="M300.937 40.6644C300.027 45.0795 299.199 53.1906 302.294 56.1401C302.294 56.1401 301.083 60.628 292.872 60.628C283.832 60.628 288.548 56.1401 288.548 56.1401C293.482 54.9566 293.354 51.2971 292.499 47.8652L300.937 40.6644Z" fill="#FFB573"/>
<path opacity="0.2" d="M297.496 43.6046L292.499 47.8923C292.711 48.6918 292.854 49.508 292.927 50.332C294.811 50.0589 297.396 47.9924 297.597 46.017C297.709 45.2134 297.675 44.3961 297.496 43.6046Z" fill="black"/>
<path d="M305.708 32.9994C304.014 40.2002 303.459 43.2862 299.144 46.3904C292.663 51.0695 284.178 47.4282 283.669 39.8633C283.213 33.0632 286.045 22.4214 293.682 20.7464C295.36 20.3681 297.106 20.4247 298.756 20.9107C300.405 21.3967 301.903 22.296 303.108 23.5233C304.312 24.7506 305.184 26.2653 305.639 27.9237C306.093 29.5821 306.117 31.3293 305.708 32.9994Z" fill="#FFB573"/>
<path d="M302.958 22.1664C295.33 23.013 297.651 37.2324 303.386 38.607C310.105 35.3207 314.247 22.84 302.958 22.1664Z" fill="#263238"/>
<path d="M340.3 260.555L335.029 262.157L327.337 246.044L335.448 243.832L340.3 260.555Z" fill="#FFB573"/>
<path d="M333.509 260.546L340.282 257.924C340.401 257.878 340.531 257.876 340.651 257.918C340.771 257.96 340.873 258.042 340.938 258.152L343.969 263.268C344.042 263.395 344.086 263.537 344.099 263.683C344.112 263.83 344.093 263.977 344.044 264.115C343.994 264.253 343.916 264.379 343.813 264.485C343.711 264.59 343.587 264.672 343.45 264.724C341.074 265.635 339.927 266.099 336.95 267.255C335.13 267.965 332.271 270.332 329.74 271.306C327.21 272.28 326.099 269.968 327.009 269.167C329.476 267.014 331.419 264.327 332.69 261.311C332.767 261.134 332.879 260.975 333.02 260.843C333.161 260.712 333.328 260.611 333.509 260.546Z" fill="#263238"/>
<path d="M287.892 103.031C287.892 103.031 299.117 160.446 303.368 183.14C307.765 206.809 327.355 246.008 327.355 246.008L335.485 243.787C335.485 243.787 324.351 201.857 319.162 181.074C318.143 143.441 319.344 112.799 310.059 102.995L287.892 103.031Z" fill="#7A5DDA"/>
<path d="M293.764 32.9538C293.664 33.5455 293.273 33.9734 292.854 33.8641C292.435 33.7549 292.235 33.2633 292.335 32.6716C292.435 32.0799 292.836 31.652 293.245 31.7158C293.655 31.7795 293.873 32.3621 293.764 32.9538Z" fill="#263238"/>
<path d="M287.073 31.8158C286.973 32.4076 286.573 32.8354 286.163 32.7262C285.753 32.6169 285.544 32.1345 285.644 31.5336C285.744 30.9328 286.145 30.5141 286.554 30.6233C286.964 30.7326 287.173 31.2241 287.073 31.8158Z" fill="#263238"/>
<path d="M286.718 30.6871L285.362 30.0316C285.362 30.0316 285.908 31.2697 286.718 30.6871Z" fill="#263238"/>
<path d="M288.948 33.236C288.197 34.495 287.278 35.6464 286.217 36.6588C286.483 36.9243 286.802 37.1293 287.154 37.2597C287.506 37.3901 287.882 37.4429 288.257 37.4144L288.948 33.236Z" fill="#ED893E"/>
<path d="M291.079 40.2819C290.773 40.2821 290.469 40.2547 290.168 40.2C290.145 40.1967 290.124 40.1888 290.104 40.1769C290.084 40.165 290.067 40.1492 290.053 40.1306C290.04 40.1119 290.03 40.0907 290.025 40.0682C290.019 40.0458 290.019 40.0225 290.023 39.9997C290.032 39.9547 290.057 39.9146 290.094 39.8876C290.131 39.8606 290.177 39.8486 290.223 39.8541C290.958 39.9941 291.715 39.96 292.435 39.7544C293.154 39.5489 293.815 39.1777 294.365 38.6706C294.381 38.653 294.401 38.6389 294.423 38.6293C294.445 38.6196 294.468 38.6146 294.492 38.6146C294.516 38.6146 294.54 38.6196 294.562 38.6293C294.584 38.6389 294.604 38.653 294.62 38.6706C294.651 38.7042 294.668 38.7481 294.668 38.7935C294.668 38.839 294.651 38.8829 294.62 38.9164C293.667 39.8221 292.393 40.3131 291.079 40.2819Z" fill="#263238"/>
<path d="M306.745 39.2078C306.02 40.4403 304.84 41.3392 303.459 41.7112C301.638 42.1755 300.728 40.5278 301.293 38.8163C301.775 37.2779 303.323 35.175 305.152 35.4572C305.55 35.5298 305.923 35.7 306.238 35.9524C306.554 36.2048 306.801 36.5316 306.959 36.9033C307.117 37.2751 307.18 37.6803 307.143 38.0825C307.106 38.4847 306.969 38.8714 306.745 39.2078Z" fill="#FFB573"/>
<path d="M296.668 32.0434C296.594 32.0427 296.523 32.0185 296.464 31.9742C296.405 31.93 296.362 31.8682 296.34 31.7976C295.858 30.241 293.864 29.5673 293.846 29.5673C293.801 29.5539 293.76 29.5316 293.724 29.5016C293.688 29.4717 293.658 29.4347 293.637 29.393C293.616 29.3513 293.603 29.3057 293.6 29.259C293.597 29.2123 293.603 29.1654 293.619 29.1212C293.632 29.0764 293.654 29.0347 293.684 28.9987C293.714 28.9627 293.751 28.9332 293.793 28.9119C293.835 28.8907 293.88 28.8781 293.927 28.8749C293.974 28.8718 294.02 28.8782 294.065 28.8937C294.156 28.8937 296.422 29.6857 297.014 31.6247C297.028 31.6695 297.033 31.7166 297.029 31.7634C297.024 31.8102 297.011 31.8556 296.989 31.8971C296.967 31.9386 296.937 31.9753 296.901 32.0051C296.864 32.0349 296.822 32.0572 296.777 32.0707L296.668 32.0434Z" fill="#263238"/>
<path d="M285.58 28.3749C285.52 28.3742 285.46 28.3579 285.408 28.3276C285.355 28.2973 285.311 28.2541 285.28 28.202C285.234 28.1198 285.223 28.0229 285.248 27.9325C285.274 27.842 285.334 27.7654 285.416 27.7195C285.896 27.4295 286.438 27.2584 286.997 27.2204C287.556 27.1824 288.116 27.2786 288.63 27.501C288.713 27.5438 288.775 27.6174 288.804 27.706C288.833 27.7946 288.826 27.8909 288.785 27.9744C288.742 28.0571 288.668 28.1197 288.58 28.1487C288.491 28.1776 288.395 28.1706 288.311 28.1291C287.9 27.9609 287.456 27.8915 287.013 27.9262C286.57 27.961 286.142 28.0991 285.762 28.3294C285.708 28.3625 285.644 28.3784 285.58 28.3749Z" fill="#263238"/>
<path d="M313.455 58.3338C316.049 61.7294 318.407 65.1613 320.646 68.7844C321.757 70.6051 322.849 72.4258 323.851 74.3648C324.938 76.374 325.837 78.4798 326.536 80.6552C326.636 80.9465 326.709 81.2833 326.791 81.5655L326.855 81.8295L326.937 82.2118C326.974 82.4501 326.998 82.6902 327.009 82.931C327.051 83.7211 326.993 84.5133 326.837 85.2888C326.577 86.5185 326.19 87.7176 325.68 88.8664C324.782 90.8961 323.723 92.8505 322.512 94.7107C320.208 98.2858 317.617 101.668 314.766 104.824C314.453 105.174 314.022 105.395 313.556 105.446C313.09 105.496 312.621 105.371 312.242 105.096C311.862 104.82 311.598 104.414 311.501 103.955C311.404 103.496 311.48 103.018 311.716 102.612V102.567C313.728 99.0621 315.721 95.4572 317.442 91.8887C318.286 90.1682 319.018 88.3955 319.636 86.5814C319.902 85.8111 320.085 85.0146 320.182 84.2055C320.215 83.9669 320.215 83.7249 320.182 83.4863V83.4317V83.3224C320.118 83.1404 320.073 82.9765 319.991 82.7854C319.282 81.0786 318.448 79.4264 317.497 77.8422C316.495 76.1581 315.43 74.474 314.338 72.7899C312.116 69.4581 309.786 66.1081 307.419 62.8673C306.852 62.0542 306.624 61.0522 306.783 60.0736C306.942 59.0951 307.475 58.2169 308.271 57.6251C309.066 57.0333 310.061 56.7745 311.044 56.9034C312.027 57.0323 312.921 57.5388 313.537 58.3156L313.455 58.3338Z" fill="#FFB573"/>
<path d="M293.418 31.825L292.062 31.1696C292.062 31.1696 292.599 32.4167 293.418 31.825Z" fill="#263238"/>
<path d="M277.833 64.078C278.396 61.7812 279.12 59.5271 280 57.3324C281.396 56.9152 282.824 56.6108 284.269 56.4221C287.214 59.0314 289.636 62.1762 291.406 65.6892C295.312 61.7384 302.785 57.7421 307.337 56.2855C308.877 56.1884 310.421 56.383 311.889 56.859C308.785 66.6542 305.617 76.504 311.233 79.0347C311.133 83.6865 311.397 89.458 311.634 95.2932C306.327 94.7106 285.28 93.7002 276.732 95.5754C276.295 89.6583 276.14 84.6515 276.167 80.3274C272.189 75.2568 276.176 68.3565 277.833 64.078Z" fill="#263238"/>
<mask id="mask0_40_474" style="mask-type:luminance" maskUnits="userSpaceOnUse" x="274" y="56" width="38" height="40">
<path d="M277.833 64.078C278.396 61.7812 279.12 59.5271 280 57.3324C281.396 56.9152 282.824 56.6108 284.269 56.4221C287.214 59.0314 289.636 62.1762 291.406 65.6892C295.312 61.7384 302.785 57.7421 307.337 56.2855C308.877 56.1884 310.421 56.383 311.889 56.859C308.785 66.6542 305.617 76.504 311.233 79.0347C311.133 83.6865 311.397 89.458 311.634 95.2932C306.327 94.7106 285.28 93.7002 276.732 95.5754C276.295 89.6583 276.14 84.6515 276.167 80.3274C272.189 75.2568 276.176 68.3565 277.833 64.078Z" fill="white"/>
</mask>
<g mask="url(#mask0_40_474)">
<g opacity="0.2">
<path d="M286.199 82.2938C286.152 82.2995 286.106 82.3177 286.068 82.3464C286.03 82.3752 286 82.4136 285.981 82.4576C285.335 84.2683 285.355 86.2494 286.035 88.0471C285.407 87.5191 284.788 87.0002 284.215 86.4722C284.727 85.376 284.926 84.159 284.787 82.9567C284.649 81.7545 284.18 80.6142 283.432 79.6629C283.403 79.6257 283.366 79.5962 283.323 79.5771C283.28 79.5581 283.233 79.55 283.186 79.5537C283.138 79.5575 283.092 79.5749 283.053 79.6039C283.014 79.6329 282.985 79.6723 282.968 79.7175C282.301 81.5789 282.343 83.6204 283.086 85.4526C282.267 84.7062 281.484 83.9597 280.765 83.2405C281.302 82.1388 281.518 80.9077 281.388 79.6888C281.257 78.4698 280.786 77.3124 280.027 76.3493C279.999 76.3121 279.961 76.2826 279.918 76.2635C279.875 76.2444 279.828 76.2364 279.781 76.2401C279.733 76.2438 279.687 76.2613 279.648 76.2903C279.61 76.3193 279.58 76.3587 279.563 76.4039C278.901 78.2691 278.943 80.3118 279.681 82.1481C278.434 80.8464 277.396 79.6629 276.623 78.6798C276.345 77.579 275.792 76.5667 275.017 75.7373C274.242 74.9079 273.269 74.2885 272.189 73.9369C272.145 73.9293 272.1 73.9321 272.058 73.9453C272.015 73.9584 271.976 73.9815 271.944 74.0126C271.912 74.0437 271.888 74.0819 271.874 74.1241C271.859 74.1664 271.855 74.2114 271.862 74.2556C272.681 78.2883 275.649 78.9893 276.249 79.0894C276.677 79.6265 277.16 80.2182 277.742 80.8555C276.316 80.2161 274.728 80.0256 273.191 80.3093C273.144 80.32 273.101 80.3436 273.068 80.3774C273.034 80.4112 273.01 80.4538 272.999 80.5004C272.986 80.5455 272.984 80.5933 272.993 80.6394C273.003 80.6855 273.024 80.7285 273.054 80.7644C273.837 81.6569 274.853 82.313 275.989 82.6588C277.124 83.0046 278.334 83.0264 279.481 82.7216C279.991 83.2496 280.537 83.7867 281.11 84.342C279.183 83.7908 277.124 83.9128 275.275 84.6879C275.231 84.7112 275.195 84.7459 275.169 84.7884C275.144 84.8309 275.13 84.8796 275.13 84.9292C275.13 84.9788 275.144 85.0274 275.169 85.0699C275.195 85.1124 275.231 85.1472 275.275 85.1704C276.315 85.8176 277.505 86.1809 278.729 86.224C279.953 86.2671 281.166 85.9886 282.248 85.4162C283.013 86.1354 283.823 86.8545 284.661 87.5737C282.796 86.7319 280.685 86.6088 278.735 87.2278C278.689 87.2461 278.65 87.2759 278.619 87.3142C278.589 87.3525 278.569 87.398 278.562 87.4463C278.557 87.4936 278.563 87.5415 278.581 87.5858C278.598 87.6301 278.626 87.6696 278.662 87.7011C279.62 88.4774 280.774 88.9733 281.997 89.134C283.22 89.2947 284.463 89.1138 285.589 88.6115L285.662 88.566C285.691 88.5358 285.71 88.4978 285.717 88.4567L286.745 89.2942C286.777 89.3372 286.822 89.369 286.873 89.3853C287.419 89.8222 287.974 90.2501 288.539 90.6688C288.588 90.7111 288.651 90.7344 288.716 90.7344C288.781 90.7344 288.844 90.7111 288.894 90.6688C288.915 90.6396 288.93 90.6065 288.938 90.5714C288.946 90.5363 288.947 90.4999 288.942 90.4644C288.936 90.4289 288.923 90.3948 288.904 90.3643C288.884 90.3338 288.86 90.3073 288.83 90.2865C288.311 89.8951 287.792 89.5036 287.292 89.094C287.765 88.0096 287.935 86.8173 287.784 85.644C287.633 84.4706 287.167 83.36 286.436 82.4303C286.412 82.3888 286.377 82.3543 286.336 82.3303C286.294 82.3063 286.247 82.2937 286.199 82.2938Z" fill="white"/>
<path d="M277.223 68.1928C277.271 68.1871 277.316 68.1689 277.355 68.1402C277.393 68.1114 277.423 68.073 277.442 68.0289C278.087 66.2183 278.068 64.2372 277.387 62.4395C278.015 62.9675 278.634 63.4864 279.208 64.0144C278.695 65.1106 278.497 66.3276 278.635 67.5299C278.773 68.7321 279.243 69.8724 279.991 70.8237C280.019 70.8609 280.057 70.8904 280.1 70.9095C280.143 70.9285 280.19 70.9366 280.237 70.9329C280.285 70.9291 280.331 70.9117 280.37 70.8827C280.408 70.8537 280.438 70.8143 280.455 70.7691C281.121 68.9077 281.079 66.8662 280.337 65.034C281.156 65.7804 281.939 66.5269 282.658 67.2461C282.12 68.3478 281.904 69.5788 282.035 70.7978C282.165 72.0167 282.637 73.1742 283.395 74.1373C283.424 74.1745 283.462 74.204 283.504 74.2231C283.547 74.2421 283.594 74.2502 283.641 74.2465C283.689 74.2427 283.736 74.2253 283.774 74.1963C283.813 74.1673 283.843 74.1279 283.86 74.0827C284.522 72.2175 284.479 70.1748 283.741 68.3385C284.988 69.6402 286.026 70.8237 286.8 71.8068C287.078 72.9076 287.631 73.9199 288.406 74.7493C289.181 75.5787 290.154 76.1981 291.233 76.5497C291.277 76.5573 291.322 76.5544 291.365 76.5413C291.408 76.5281 291.447 76.5051 291.479 76.474C291.511 76.4429 291.535 76.4047 291.549 76.3624C291.563 76.3202 291.568 76.2752 291.561 76.231C290.742 72.1983 287.774 71.4973 287.173 71.3972C286.745 70.8601 286.263 70.2684 285.68 69.6311C287.106 70.2731 288.696 70.4606 290.232 70.1682C290.278 70.1603 290.321 70.1387 290.355 70.1063C290.389 70.0739 290.413 70.0321 290.423 69.9862C290.437 69.9411 290.439 69.8933 290.429 69.8472C290.42 69.8011 290.399 69.7581 290.369 69.7222C289.586 68.8297 288.57 68.1736 287.434 67.8278C286.298 67.482 285.089 67.4602 283.942 67.765C283.432 67.237 282.886 66.6999 282.312 66.1446C284.24 66.6958 286.298 66.5738 288.147 65.7986C288.191 65.7754 288.228 65.7406 288.253 65.6981C288.279 65.6556 288.292 65.607 288.292 65.5574C288.292 65.5078 288.279 65.4591 288.253 65.4166C288.228 65.3741 288.191 65.3394 288.147 65.3162C287.108 64.669 285.917 64.3057 284.694 64.2626C283.47 64.2194 282.257 64.498 281.174 65.0704C280.41 64.3512 279.599 63.632 278.762 62.9129C280.627 63.7546 282.738 63.8778 284.688 63.2588C284.732 63.2391 284.771 63.2089 284.801 63.1708C284.832 63.1328 284.852 63.088 284.861 63.0403C284.866 62.9929 284.859 62.9451 284.842 62.9008C284.824 62.8565 284.797 62.8169 284.761 62.7854C283.803 62.0092 282.648 61.5133 281.426 61.3526C280.203 61.1919 278.96 61.3728 277.833 61.8751L277.76 61.9206C277.732 61.9508 277.713 61.9888 277.706 62.0299L276.677 61.1924C276.645 61.1494 276.601 61.1175 276.55 61.1013C276.004 60.6644 275.448 60.2365 274.884 59.8178C274.834 59.7754 274.771 59.7522 274.706 59.7522C274.641 59.7522 274.578 59.7754 274.529 59.8178C274.488 59.8765 274.47 59.9487 274.48 60.0197C274.491 60.0908 274.527 60.1553 274.583 60.2001C275.111 60.5915 275.63 60.983 276.131 61.3926C275.658 62.477 275.488 63.6693 275.639 64.8426C275.789 66.016 276.255 67.1265 276.987 68.0563C277.011 68.0978 277.045 68.1323 277.087 68.1563C277.128 68.1802 277.175 68.1928 277.223 68.1928Z" fill="white"/>
<path d="M305.289 88.9391C305.243 88.9455 305.199 88.963 305.161 88.9899C305.123 89.0168 305.092 89.0525 305.07 89.0938C304.433 90.9058 304.452 92.8841 305.125 94.6833C304.497 94.1644 303.878 93.6364 303.304 93.1084C303.817 92.0138 304.016 90.7982 303.878 89.5973C303.739 88.3964 303.27 87.2576 302.522 86.3082C302.493 86.2708 302.456 86.2412 302.413 86.2224C302.37 86.2035 302.323 86.196 302.277 86.2006C302.23 86.2051 302.185 86.2216 302.147 86.2485C302.109 86.2753 302.078 86.3116 302.057 86.3538C301.395 88.2189 301.437 90.2616 302.176 92.0979C301.356 91.3424 300.573 90.605 299.854 89.8858C300.394 88.7863 300.612 87.5562 300.481 86.3381C300.351 85.1201 299.878 83.9639 299.117 83.0037C299.09 82.9644 299.053 82.9334 299.01 82.914C298.966 82.8947 298.918 82.888 298.871 82.8945C298.825 82.9002 298.78 82.9173 298.742 82.9443C298.704 82.9713 298.673 83.0074 298.653 83.0492C297.991 84.9144 298.033 86.9571 298.771 88.7934C297.524 87.5008 296.486 86.3082 295.712 85.3251C295.431 84.2258 294.878 83.215 294.103 82.3861C293.328 81.5572 292.357 80.9368 291.279 80.5823C291.235 80.5734 291.19 80.5753 291.147 80.588C291.104 80.6007 291.065 80.6238 291.033 80.6551C291 80.6879 290.975 80.7282 290.961 80.7726C290.947 80.8169 290.944 80.864 290.951 80.91C291.771 84.9336 294.747 85.6346 295.339 85.7347C295.767 86.2718 296.249 86.8726 296.832 87.5099C295.405 86.87 293.818 86.6795 292.28 86.9637C292.235 86.9762 292.193 87.0004 292.159 87.0339C292.126 87.0675 292.102 87.1091 292.089 87.1549C292.075 87.1984 292.073 87.2448 292.083 87.2895C292.092 87.3342 292.113 87.3756 292.144 87.4097C292.922 88.3083 293.938 88.9688 295.075 89.315C296.212 89.6613 297.424 89.6793 298.571 89.367C299.08 89.8949 299.627 90.4412 300.2 90.9965C298.273 90.44 296.213 90.5621 294.365 91.3424C294.323 91.3672 294.288 91.4017 294.263 91.4429C294.238 91.4841 294.223 91.5308 294.219 91.5791C294.218 91.6272 294.231 91.6747 294.255 91.7164C294.279 91.7582 294.314 91.7925 294.356 91.8157C295.395 92.4635 296.585 92.8278 297.808 92.8725C299.032 92.9173 300.246 92.6408 301.329 92.0706C302.094 92.7807 302.904 93.4999 303.741 94.2281C301.876 93.3864 299.766 93.2632 297.815 93.8822C297.77 93.9005 297.73 93.9303 297.7 93.9686C297.669 94.0069 297.65 94.0524 297.642 94.1007C297.637 94.1477 297.644 94.1953 297.663 94.2385C297.682 94.2818 297.713 94.319 297.751 94.3465C298.71 95.1227 299.864 95.6186 301.087 95.7793C302.309 95.94 303.553 95.7591 304.679 95.2568L304.743 95.2022C304.769 95.1724 304.791 95.1386 304.806 95.102L305.835 95.9395C305.864 95.9819 305.905 96.0138 305.954 96.0306C306.5 96.4675 307.055 96.8954 307.619 97.3233C307.669 97.3656 307.732 97.3888 307.797 97.3888C307.862 97.3888 307.925 97.3656 307.974 97.3233C308.018 97.2653 308.037 97.1925 308.026 97.1208C308.016 97.0491 307.978 96.9844 307.92 96.9409C307.392 96.5495 306.882 96.1489 306.372 95.7484C306.847 94.665 307.02 93.473 306.87 92.2995C306.721 91.126 306.257 90.0149 305.526 89.0848C305.502 89.0421 305.468 89.0063 305.426 88.9808C305.385 88.9552 305.338 88.9409 305.289 88.9391Z" fill="white"/>
<path d="M322.795 95.2295C322.746 95.2333 322.7 95.2507 322.662 95.2797C322.623 95.3087 322.593 95.3482 322.576 95.3934C321.927 97.2028 321.943 99.1842 322.622 100.983C321.993 100.455 321.384 99.9268 320.801 99.4079C321.316 98.3128 321.516 97.096 321.38 95.8936C321.243 94.6911 320.775 93.5504 320.027 92.5987C319.998 92.5601 319.959 92.5297 319.914 92.5106C319.869 92.4914 319.821 92.4842 319.772 92.4894C319.725 92.496 319.68 92.5145 319.642 92.5432C319.604 92.5718 319.573 92.6097 319.554 92.6533C318.892 94.5153 318.934 96.5553 319.672 98.3884C318.853 97.6419 318.079 96.8954 317.36 96.1763C317.897 95.0745 318.113 93.8435 317.983 92.6245C317.853 91.4056 317.381 90.2481 316.623 89.2851C316.594 89.2478 316.556 89.2183 316.513 89.1993C316.471 89.1802 316.424 89.1721 316.377 89.1758C316.329 89.1796 316.282 89.197 316.244 89.226C316.205 89.255 316.175 89.2944 316.158 89.3397C315.492 91.2042 315.534 93.2484 316.277 95.0839C315.029 93.7821 313.983 92.5987 313.218 91.6155C312.94 90.5148 312.387 89.5024 311.612 88.673C310.837 87.8436 309.864 87.2242 308.785 86.8727C308.74 86.8628 308.694 86.864 308.651 86.8764C308.607 86.8887 308.567 86.9118 308.535 86.9434C308.502 86.975 308.478 87.0142 308.464 87.0575C308.451 87.1008 308.448 87.1468 308.457 87.1913C309.276 91.2241 312.244 91.925 312.845 92.0252C313.263 92.5622 313.755 93.154 314.338 93.7912C312.91 93.1535 311.324 92.9631 309.786 93.245C309.741 93.259 309.7 93.2838 309.667 93.3171C309.634 93.3504 309.609 93.3912 309.595 93.4362C309.582 93.482 309.582 93.5302 309.593 93.5763C309.604 93.6225 309.627 93.6651 309.658 93.7002C310.44 94.591 311.455 95.2461 312.589 95.5919C313.723 95.9376 314.93 95.9603 316.076 95.6574C316.595 96.1854 317.132 96.7225 317.706 97.2778C315.781 96.7265 313.726 96.8485 311.88 97.6237C311.836 97.6457 311.799 97.6795 311.773 97.7213C311.747 97.7631 311.734 97.8113 311.734 97.8604C311.733 97.9087 311.744 97.9565 311.767 97.9994C311.789 98.0423 311.822 98.079 311.861 98.1062C312.904 98.7507 314.096 99.1123 315.32 99.1554C316.544 99.1985 317.759 98.9216 318.844 98.352C319.608 99.0681 320.41 99.7873 321.247 100.509C319.382 99.6677 317.271 99.5445 315.321 100.164C315.276 100.181 315.236 100.21 315.207 100.249C315.178 100.288 315.161 100.334 315.157 100.382C315.152 100.429 315.159 100.477 315.176 100.522C315.194 100.566 315.221 100.605 315.257 100.637C316.216 101.412 317.37 101.908 318.593 102.068C319.815 102.229 321.058 102.049 322.185 101.547C322.206 101.551 322.227 101.551 322.248 101.547C322.283 101.52 322.305 101.481 322.312 101.438L323.341 102.275C323.371 102.316 323.412 102.347 323.459 102.367C324.005 102.803 324.561 103.231 325.125 103.65C325.175 103.692 325.237 103.716 325.303 103.716C325.368 103.716 325.431 103.692 325.48 103.65C325.503 103.622 325.519 103.589 325.529 103.554C325.539 103.519 325.541 103.483 325.536 103.447C325.531 103.411 325.518 103.377 325.499 103.346C325.48 103.315 325.455 103.288 325.425 103.268L323.878 102.075C324.353 100.992 324.525 99.7999 324.376 98.6263C324.227 97.4528 323.762 96.3417 323.031 95.4116C323.013 95.3621 322.981 95.3189 322.939 95.2867C322.897 95.2545 322.847 95.2347 322.795 95.2295Z" fill="white"/>
<path d="M282.767 96.2582C282.72 96.2622 282.675 96.2786 282.637 96.3058C282.599 96.333 282.568 96.37 282.549 96.413C281.9 98.2224 281.916 100.204 282.594 102.002C281.966 101.484 281.356 100.956 280.774 100.428C281.289 99.3324 281.489 98.1156 281.352 96.9132C281.216 95.7107 280.747 94.5699 280 93.6182C279.97 93.5813 279.931 93.5525 279.887 93.5345C279.843 93.5166 279.795 93.51 279.748 93.5154C279.701 93.5209 279.656 93.5382 279.617 93.5657C279.578 93.5932 279.547 93.6301 279.527 93.6728C278.865 95.538 278.907 97.5807 279.645 99.4171C278.826 98.6615 278.052 97.9241 277.333 97.2049C277.87 96.1032 278.086 94.8722 277.956 93.6532C277.825 92.4343 277.354 91.2768 276.595 90.3137C276.567 90.2761 276.53 90.2468 276.486 90.2291C276.443 90.2115 276.396 90.2061 276.349 90.2136C276.302 90.2155 276.256 90.2311 276.217 90.2586C276.179 90.2861 276.149 90.3242 276.131 90.3683C275.465 92.2328 275.507 94.2771 276.249 96.1125C275.171 95.0096 274.15 93.8519 273.191 92.6442C272.91 91.5449 272.356 90.5341 271.581 89.7052C270.806 88.8763 269.835 88.2559 268.757 87.9013C268.712 87.8925 268.665 87.8944 268.621 87.9071C268.577 87.9197 268.536 87.9427 268.502 87.9742C268.473 88.0076 268.452 88.0468 268.439 88.0892C268.427 88.1316 268.423 88.1762 268.43 88.22C269.249 92.2527 272.217 92.9537 272.817 93.0538C273.236 93.5909 273.728 94.1826 274.31 94.8745C272.886 94.2278 271.296 94.037 269.759 94.3283C269.714 94.34 269.673 94.3629 269.64 94.3947C269.606 94.4265 269.581 94.4663 269.568 94.5104C269.555 94.5562 269.554 94.6044 269.566 94.6505C269.577 94.6967 269.599 94.7393 269.631 94.7744C270.407 95.673 271.422 96.3337 272.557 96.6801C273.693 97.0264 274.904 97.0443 276.049 96.7316C276.568 97.2596 277.105 97.8058 277.679 98.3611C275.755 97.8008 273.696 97.923 271.852 98.707C271.809 98.7275 271.773 98.7597 271.747 98.7999C271.721 98.8401 271.707 98.8868 271.707 98.9346C271.705 98.983 271.716 99.0311 271.738 99.0742C271.761 99.1172 271.794 99.1538 271.834 99.1804C272.875 99.828 274.067 100.192 275.291 100.237C276.516 100.282 277.732 100.005 278.817 99.4352C279.581 100.145 280.382 100.864 281.22 101.584C279.354 100.744 277.243 100.624 275.294 101.247C275.25 101.263 275.211 101.292 275.182 101.328C275.153 101.365 275.135 101.41 275.13 101.456C275.123 101.504 275.129 101.552 275.147 101.597C275.164 101.641 275.193 101.681 275.23 101.711C276.189 102.486 277.343 102.982 278.565 103.142C279.788 103.303 281.031 103.123 282.157 102.621C282.178 102.626 282.2 102.626 282.221 102.621C282.254 102.597 282.276 102.561 282.285 102.521L283.314 103.359C283.344 103.399 283.385 103.431 283.432 103.45C283.987 103.887 284.533 104.315 285.098 104.742C285.147 104.785 285.21 104.808 285.275 104.808C285.34 104.808 285.403 104.785 285.453 104.742C285.476 104.714 285.492 104.682 285.502 104.647C285.511 104.612 285.514 104.575 285.509 104.539C285.504 104.504 285.491 104.469 285.472 104.438C285.453 104.407 285.428 104.381 285.398 104.36L283.851 103.168C284.326 102.083 284.498 100.889 284.349 99.7144C284.199 98.5394 283.735 97.4269 283.004 96.4949C283 96.4335 282.973 96.3758 282.93 96.3322C282.886 96.2887 282.829 96.2624 282.767 96.2582Z" fill="white"/>
<path d="M304.706 57.906C304.659 57.9125 304.614 57.931 304.576 57.9597C304.538 57.9884 304.507 58.0262 304.488 58.0698C303.85 59.8817 303.87 61.8601 304.542 63.6593C303.914 63.1313 303.295 62.6124 302.722 62.0844C303.234 60.9882 303.433 59.7711 303.294 58.5689C303.156 57.3666 302.687 56.2264 301.939 55.2751C301.91 55.2379 301.873 55.2084 301.83 55.1893C301.787 55.1702 301.74 55.1622 301.693 55.1659C301.645 55.1696 301.599 55.187 301.56 55.2161C301.521 55.2451 301.492 55.2845 301.475 55.3297C300.812 57.1917 300.855 59.2317 301.593 61.0648C300.774 60.3183 299.991 59.5719 299.272 58.8527C299.809 57.7509 300.025 56.5199 299.895 55.301C299.764 54.082 299.293 52.9246 298.534 51.9615C298.506 51.9236 298.469 51.8936 298.426 51.8745C298.383 51.8554 298.335 51.8477 298.288 51.8523C298.24 51.856 298.194 51.8734 298.155 51.9025C298.117 51.9315 298.087 51.9709 298.07 52.0161C297.408 53.8813 297.45 55.924 298.188 57.7603C296.941 56.4585 295.903 55.2751 295.13 54.2919C294.852 53.1912 294.299 52.1788 293.524 51.3495C292.749 50.5201 291.776 49.9007 290.696 49.5491C290.652 49.5415 290.607 49.5443 290.565 49.5575C290.522 49.5706 290.483 49.5937 290.451 49.6248C290.419 49.6559 290.395 49.6941 290.381 49.7363C290.366 49.7786 290.362 49.8236 290.369 49.8677C291.188 53.9005 294.165 54.6014 294.756 54.7016C295.184 55.2387 295.667 55.8304 296.249 56.4676C294.823 55.8277 293.235 55.6372 291.698 55.9214C291.653 55.9355 291.612 55.9602 291.579 55.9935C291.545 56.0268 291.52 56.0677 291.506 56.1126C291.493 56.1577 291.491 56.2054 291.5 56.2515C291.51 56.2977 291.531 56.3406 291.561 56.3766C292.344 57.2691 293.36 57.9252 294.496 58.271C295.631 58.6168 296.841 58.6386 297.988 58.3338C298.498 58.8618 299.044 59.3989 299.618 59.9542C297.69 59.403 295.632 59.525 293.782 60.3001C293.741 60.3249 293.706 60.3594 293.68 60.4006C293.655 60.4418 293.64 60.4885 293.637 60.5368C293.636 60.5861 293.648 60.6348 293.672 60.6779C293.696 60.7211 293.731 60.7571 293.773 60.7826C294.813 61.4298 296.003 61.793 297.227 61.8362C298.451 61.8793 299.664 61.6008 300.746 61.0284C301.511 61.7475 302.321 62.4667 303.159 63.1859C301.293 62.3441 299.183 62.2209 297.232 62.8399C297.187 62.8583 297.147 62.8881 297.117 62.9263C297.087 62.9646 297.067 63.0102 297.059 63.0584C297.054 63.1067 297.062 63.1556 297.081 63.2002C297.1 63.2449 297.13 63.2838 297.169 63.3133C298.126 64.0888 299.278 64.5843 300.5 64.745C301.721 64.9056 302.962 64.7252 304.087 64.2237L304.16 64.1781C304.189 64.148 304.208 64.1099 304.215 64.0689L305.243 64.9064C305.277 64.9475 305.321 64.9789 305.371 64.9974C305.917 65.4344 306.472 65.8623 307.037 66.281C307.086 66.3233 307.149 66.3466 307.214 66.3466C307.279 66.3466 307.342 66.3233 307.392 66.281C307.435 66.2231 307.454 66.1502 307.444 66.0785C307.433 66.0068 307.395 65.9421 307.337 65.8987C306.809 65.5072 306.299 65.1158 305.79 64.7061C306.265 63.6228 306.437 62.4308 306.288 61.2572C306.139 60.0837 305.674 58.9726 304.943 58.0425C304.917 58.0026 304.882 57.9695 304.841 57.9458C304.8 57.922 304.754 57.9084 304.706 57.906Z" fill="white"/>
<path d="M296.058 75.2023C296.105 75.1983 296.15 75.1819 296.188 75.1547C296.227 75.1275 296.257 75.0905 296.277 75.0476C296.926 73.2381 296.91 71.2567 296.231 69.4581C296.859 69.977 297.469 70.505 298.052 71.033C297.537 72.1282 297.336 73.3449 297.473 74.5474C297.61 75.7498 298.078 76.8906 298.826 77.8423C298.855 77.8792 298.894 77.908 298.938 77.926C298.982 77.944 299.03 77.9505 299.077 77.9451C299.124 77.9396 299.17 77.9223 299.208 77.8948C299.247 77.8673 299.278 77.8304 299.299 77.7877C299.961 75.9225 299.919 73.8798 299.181 72.0435C300 72.796 300.774 73.5334 301.502 74.2556C300.964 75.3573 300.748 76.5883 300.879 77.8073C301.009 79.0262 301.481 80.1837 302.239 81.1468C302.269 81.1837 302.308 81.2125 302.352 81.2305C302.396 81.2485 302.444 81.255 302.491 81.2496C302.538 81.2441 302.583 81.2268 302.622 81.1993C302.661 81.1718 302.692 81.1349 302.713 81.0922C303.376 79.2266 303.331 77.1823 302.585 75.348C303.664 76.4509 304.684 77.6086 305.644 78.8163C305.925 79.917 306.48 80.9288 307.256 81.758C308.033 82.5871 309.006 83.2066 310.086 83.5592C310.13 83.5681 310.175 83.5661 310.218 83.5534C310.261 83.5407 310.3 83.5177 310.332 83.4863C310.364 83.4526 310.387 83.412 310.399 83.3676C310.412 83.3233 310.414 83.2767 310.405 83.2314C309.595 79.2078 306.618 78.5068 306.017 78.4067C305.598 77.8696 305.107 77.2779 304.524 76.586C305.949 77.2327 307.539 77.4235 309.076 77.1322C309.121 77.1205 309.162 77.0977 309.195 77.0658C309.228 77.034 309.253 76.9942 309.267 76.9502C309.28 76.9043 309.28 76.8561 309.269 76.81C309.258 76.7638 309.235 76.7213 309.203 76.6862C308.427 75.7875 307.413 75.1268 306.277 74.7804C305.141 74.4341 303.931 74.4162 302.786 74.7289C302.276 74.2009 301.73 73.6548 301.156 73.0995C303.08 73.6597 305.138 73.5375 306.982 72.7535C307.026 72.7315 307.063 72.6977 307.089 72.6559C307.114 72.6141 307.128 72.5659 307.128 72.5168C307.131 72.4694 307.12 72.4221 307.098 72.3803C307.075 72.3385 307.042 72.3038 307 72.2801C305.96 71.6325 304.768 71.2682 303.543 71.2235C302.318 71.1788 301.103 71.4552 300.018 72.0253C299.253 71.3152 298.452 70.596 297.615 69.8769C299.482 70.7122 301.591 70.8321 303.541 70.2137C303.585 70.1973 303.624 70.169 303.652 70.1321C303.681 70.0951 303.7 70.0509 303.705 70.0043C303.713 69.9567 303.708 69.9078 303.691 69.8629C303.673 69.8179 303.643 69.7787 303.605 69.7494C302.648 68.9713 301.493 68.4742 300.27 68.3135C299.047 68.1527 297.803 68.3347 296.677 68.8391C296.656 68.8349 296.634 68.8349 296.613 68.8391C296.587 68.8689 296.565 68.9027 296.55 68.9392L295.521 68.1017C295.492 68.0594 295.451 68.0275 295.403 68.0107C294.856 67.5737 294.301 67.1004 293.737 66.718C293.687 66.6757 293.624 66.6525 293.559 66.6525C293.494 66.6525 293.431 66.6757 293.382 66.718C293.338 66.776 293.32 66.8488 293.33 66.9205C293.34 66.9922 293.378 67.0569 293.436 67.1004L294.984 68.2929C294.509 69.3779 294.337 70.5712 294.486 71.7461C294.635 72.9211 295.1 74.0337 295.831 74.9656C295.839 75.0239 295.866 75.078 295.906 75.1205C295.947 75.1629 296 75.1915 296.058 75.2023Z" fill="white"/>
</g>
</g>
<path d="M300.055 83.0312L239.062 89.1851C237.436 89.3506 235.941 90.1548 234.907 91.4212C233.872 92.6877 233.383 94.3127 233.546 95.9397L235.639 116.795C237.228 115.67 239.084 114.98 241.022 114.796C242.96 114.611 244.913 114.938 246.685 115.744C248.458 116.55 249.988 117.807 251.123 119.389C252.258 120.97 252.958 122.822 253.154 124.759C253.35 126.696 253.034 128.651 252.238 130.428C251.443 132.205 250.195 133.742 248.62 134.887C247.045 136.031 245.197 136.742 243.261 136.949C241.326 137.156 239.369 136.852 237.588 136.067L239.69 156.923C239.858 158.549 240.663 160.043 241.928 161.078C243.194 162.114 244.818 162.606 246.445 162.449L307.437 156.304C309.064 156.134 310.558 155.327 311.594 154.06C312.629 152.793 313.121 151.168 312.963 149.54L306.818 88.5478C306.646 86.9223 305.839 85.4306 304.572 84.3975C303.305 83.3643 301.682 82.8733 300.055 83.0312Z" fill="#7A5DDA"/>
<path opacity="0.3" d="M300.055 83.0312L239.062 89.1851C237.436 89.3506 235.941 90.1548 234.907 91.4212C233.872 92.6877 233.383 94.3127 233.546 95.9397L235.639 116.795C237.228 115.67 239.084 114.98 241.022 114.796C242.96 114.611 244.913 114.938 246.685 115.744C248.458 116.55 249.988 117.807 251.123 119.389C252.258 120.97 252.958 122.822 253.154 124.759C253.35 126.696 253.034 128.651 252.238 130.428C251.443 132.205 250.195 133.742 248.62 134.887C247.045 136.031 245.197 136.742 243.261 136.949C241.326 137.156 239.369 136.852 237.588 136.067L239.69 156.923C239.858 158.549 240.663 160.043 241.928 161.078C243.194 162.114 244.818 162.606 246.445 162.449L307.437 156.304C309.064 156.134 310.558 155.327 311.594 154.06C312.629 152.793 313.121 151.168 312.963 149.54L306.818 88.5478C306.646 86.9223 305.839 85.4306 304.572 84.3975C303.305 83.3643 301.682 82.8733 300.055 83.0312Z" fill="black"/>
<path d="M316.695 101.738L313.873 100.51L307.246 102.203C306.486 102.402 305.814 102.847 305.334 103.468L303.933 105.289C303.634 105.688 303.482 106.178 303.504 106.675C303.526 107.173 303.719 107.648 304.051 108.02L305.635 109.768C306.015 110.184 306.542 110.436 307.104 110.47C307.667 110.504 308.221 110.317 308.648 109.95L312.244 106.864C312.244 106.864 316.577 104.834 316.695 101.738Z" fill="#FFB573"/>
<path d="M259.244 90.3683L262.176 89.9951C262.571 89.9504 262.94 89.7777 263.228 89.5031C263.516 89.2286 263.706 88.8675 263.769 88.4749L264.169 86.1444C264.223 85.8669 264.211 85.5807 264.135 85.3085C264.058 85.0364 263.92 84.7857 263.73 84.5764C263.54 84.367 263.304 84.2048 263.04 84.1025C262.777 84.0002 262.493 83.9606 262.212 83.9869L258.789 84.2327C258.308 84.2586 257.856 84.4744 257.534 84.8328C257.211 85.1912 257.044 85.6629 257.069 86.1444L257.16 88.6023C257.165 88.8607 257.225 89.1151 257.336 89.3485C257.446 89.5819 257.606 89.7891 257.803 89.9561C258 90.1232 258.231 90.2464 258.479 90.3175C258.728 90.3885 258.989 90.4059 259.244 90.3683Z" fill="#FFB573"/>
<path d="M304.861 23.4682C297.633 27.1095 284.934 25.4345 284.934 25.4345C284.934 25.4345 292.016 13.8551 304.861 23.4682Z" fill="#263238"/>
<path d="M177.669 254.438L174.037 273.345L164.843 271.124L168.475 252.217L177.669 254.438Z" fill="#7F3E3B"/>
<path d="M165.134 267.282L175.357 269.504C175.516 269.535 175.657 269.624 175.753 269.753C175.849 269.883 175.893 270.044 175.876 270.205L175.166 277.715C175.143 277.903 175.08 278.085 174.983 278.248C174.885 278.411 174.754 278.551 174.599 278.661C174.444 278.771 174.268 278.847 174.082 278.885C173.896 278.922 173.704 278.921 173.518 278.88C170.305 278.124 169.349 277.651 165.28 276.768C160.537 275.721 158.853 276.003 153.282 274.783C149.913 274.046 150.068 270.514 151.579 270.505C155.57 270.515 159.493 269.469 162.949 267.474C163.627 267.134 164.408 267.066 165.134 267.282Z" fill="#263238"/>
<path opacity="0.2" d="M177.679 254.447L175.803 264.187L166.6 261.966L168.475 252.217L177.679 254.447Z" fill="black"/>
<path d="M193.673 181.62C204.461 149.886 212.999 112.435 212.999 112.435L182.23 110.487C182.23 110.487 177.679 159.08 175.33 181.493C172.872 204.779 165.234 257.351 165.234 257.351L179.117 260.164C179.117 260.164 192.135 210.66 193.673 181.62Z" fill="#263238"/>
<path opacity="0.2" d="M198.807 130.095L206.272 139.326C204.37 146.454 202.148 154.465 199.709 162.649C198.309 151.856 198.007 140.949 198.807 130.095Z" fill="#263238"/>
<path d="M165.435 259.326L178.179 262.112C178.433 262.168 178.699 262.129 178.926 262.001C179.153 261.873 179.325 261.666 179.408 261.42L180.81 257.314C180.859 257.175 180.877 257.027 180.865 256.881C180.852 256.734 180.809 256.591 180.738 256.463C180.666 256.334 180.569 256.221 180.451 256.133C180.333 256.044 180.198 255.982 180.055 255.949L166.227 252.717C166.081 252.683 165.93 252.68 165.783 252.708C165.637 252.736 165.498 252.795 165.375 252.881C165.253 252.967 165.151 253.078 165.075 253.207C164.998 253.336 164.951 253.479 164.934 253.627L164.615 258.179C164.587 258.438 164.654 258.698 164.806 258.909C164.957 259.121 165.181 259.269 165.435 259.326Z" fill="#263238"/>
<path opacity="0.1" d="M165.435 259.326L178.179 262.112C178.433 262.168 178.699 262.129 178.926 262.001C179.153 261.873 179.325 261.666 179.408 261.42L180.81 257.314C180.859 257.175 180.877 257.027 180.865 256.881C180.852 256.734 180.809 256.591 180.738 256.463C180.666 256.334 180.569 256.221 180.451 256.133C180.333 256.044 180.198 255.982 180.055 255.949L166.227 252.717C166.081 252.683 165.93 252.68 165.783 252.708C165.637 252.736 165.498 252.795 165.375 252.881C165.253 252.967 165.151 253.078 165.075 253.207C164.998 253.336 164.951 253.479 164.934 253.627L164.615 258.179C164.587 258.438 164.654 258.698 164.806 258.909C164.957 259.121 165.181 259.269 165.435 259.326Z" fill="white"/>
<path d="M228.284 253.782L228.857 273.291L219.527 273.163L218.953 253.655L228.284 253.782Z" fill="#7F3E3B"/>
<path d="M219.29 269.158L229.212 269.303C229.373 269.303 229.529 269.362 229.648 269.47C229.768 269.577 229.843 269.726 229.859 269.886L230.66 277.387C230.675 277.577 230.651 277.768 230.588 277.948C230.525 278.127 230.425 278.292 230.295 278.431C230.164 278.57 230.006 278.68 229.831 278.754C229.656 278.828 229.467 278.865 229.276 278.862C225.981 278.762 224.943 278.489 220.783 278.425C215.922 278.343 214.875 278.953 209.176 278.871C205.726 278.816 205.171 275.321 206.645 275.011C210.561 274.229 214.201 272.426 217.196 269.786C217.789 269.318 218.537 269.093 219.29 269.158Z" fill="#263238"/>
<path opacity="0.2" d="M228.293 253.791L228.584 263.841L219.244 263.714L218.953 253.655L228.293 253.791Z" fill="black"/>
<path d="M225.963 180.974C223.323 147.592 225.553 129.586 221.675 113.009L193.673 111.27C193.673 111.27 202.367 160.337 207.164 182.531C211.962 204.724 217.123 258.634 217.123 258.634L230.887 258.807C230.887 258.807 232.572 207.018 225.963 180.974Z" fill="#263238"/>
<path d="M217.16 261.11L230.187 261.311C230.456 261.314 230.716 261.214 230.914 261.031C231.112 260.848 231.233 260.596 231.252 260.328L231.534 256.031C231.545 255.889 231.527 255.746 231.481 255.611C231.435 255.477 231.363 255.353 231.267 255.247C231.172 255.141 231.056 255.056 230.926 254.997C230.797 254.938 230.657 254.905 230.514 254.902L216.34 254.465C216.183 254.459 216.026 254.489 215.882 254.553C215.737 254.616 215.609 254.711 215.507 254.831C215.404 254.951 215.33 255.093 215.29 255.245C215.25 255.398 215.245 255.557 215.275 255.712L216.186 260.264C216.234 260.491 216.356 260.697 216.531 260.85C216.707 261.002 216.928 261.094 217.16 261.11Z" fill="#263238"/>
<path opacity="0.1" d="M217.16 261.11L230.187 261.311C230.456 261.314 230.716 261.214 230.914 261.031C231.112 260.848 231.233 260.596 231.252 260.328L231.534 256.031C231.545 255.889 231.527 255.746 231.481 255.611C231.435 255.477 231.363 255.353 231.267 255.247C231.172 255.141 231.056 255.056 230.926 254.997C230.797 254.938 230.657 254.905 230.514 254.902L216.34 254.465C216.183 254.459 216.026 254.489 215.882 254.553C215.737 254.616 215.609 254.711 215.507 254.831C215.404 254.951 215.33 255.093 215.29 255.245C215.25 255.398 215.245 255.557 215.275 255.712L216.186 260.264C216.234 260.491 216.356 260.697 216.531 260.85C216.707 261.002 216.928 261.094 217.16 261.11Z" fill="white"/>
<path d="M192.772 59.9179C191.698 62.2393 190.578 64.2966 189.358 66.4177C188.138 68.5388 186.855 70.5961 185.435 72.6171C183.999 74.7036 182.43 76.6953 180.737 78.5797C178.859 80.7493 176.658 82.6162 174.21 84.1145L173.892 84.2966C173.347 84.6168 172.742 84.818 172.114 84.8871C171.486 84.9561 170.851 84.8914 170.25 84.6972C168.475 84.1236 166.755 83.4773 165.07 82.7855C163.386 82.0936 161.748 81.3289 160.136 80.5278C158.525 79.7268 156.95 78.8801 155.403 77.9698C153.855 77.0595 152.344 76.1491 150.851 75.0476C150.317 74.6686 149.931 74.1148 149.761 73.482C149.592 72.8491 149.648 72.1768 149.921 71.5811C150.194 70.9854 150.667 70.5037 151.257 70.2192C151.847 69.9347 152.518 69.8651 153.154 70.0226H153.254C154.884 70.414 156.568 70.8874 158.207 71.3153L163.131 72.6171C164.761 73.0631 166.4 73.4364 168.011 73.8369C169.622 74.2374 171.233 74.547 172.817 74.8747L168.894 75.4664C170.257 74.336 171.479 73.0463 172.535 71.6248C173.782 70.0226 174.984 68.2566 176.177 66.4359C177.369 64.6152 178.452 62.7126 179.527 60.7827C180.601 58.8528 181.693 56.8592 182.658 55.0203L182.713 54.9202C183.438 53.7117 184.593 52.8209 185.946 52.4251C187.298 52.0293 188.751 52.1575 190.013 52.7842C191.276 53.4109 192.256 54.4902 192.759 55.8071C193.262 57.124 193.25 58.5819 192.726 59.8906L192.772 59.9179Z" fill="#7F3E3B"/>
<path d="M195.011 44.0054C184.142 45.2434 175.894 62.0755 175.894 62.0755L187.11 74.0099C187.11 74.0099 192.107 68.0564 197.478 60.5279C203.341 52.3258 203.614 43.0313 195.011 44.0054Z" fill="#7A5DDA"/>
<path d="M193.673 46.5269C197.852 45.0431 216.568 47.4372 216.568 47.4372C212.927 52.1346 209.886 91.033 209.549 113.391C205.571 113.937 190.314 112.89 186.791 112.071C187.246 103.295 190.906 62.13 193.673 46.5269Z" fill="white"/>
<path d="M181.593 58.3248C182.084 54.2797 184.044 50.5558 187.1 47.8605C190.156 45.1652 194.095 43.6864 198.17 43.7049C205.99 43.7674 213.784 44.6276 221.429 46.272C222.62 46.5241 223.748 47.0123 224.747 47.708C225.746 48.4036 226.595 49.2924 227.244 50.3219C227.893 51.3515 228.33 52.5007 228.527 53.7017C228.724 54.9028 228.679 56.1312 228.393 57.3144C222.631 81.4837 224.151 104.415 222.613 115.084C217.128 117.101 211.302 118.028 205.462 117.815C205.462 117.815 205.598 108.612 206.882 93.0722C207.902 80.719 209.731 51.6703 213.5 46.8455C213.5 46.8455 199.991 45.0249 195.812 46.4905C192.708 64.0144 190.432 117.096 190.432 117.105C183.823 116.632 180.71 112.954 180.81 111.861C179.472 90.3867 180.146 70.9147 181.593 58.3248Z" fill="#7A5DDA"/>
<path d="M213.983 31.4427C212.717 35.0841 211.252 41.5383 213.591 45.1615C213.71 45.3298 213.79 45.5223 213.825 45.7252C213.86 45.9282 213.85 46.1364 213.795 46.3349C213.74 46.5334 213.642 46.7172 213.508 46.8732C213.373 47.0292 213.206 47.1535 213.018 47.237C209.257 49.4061 204.912 50.3421 200.592 49.9134C194.72 49.44 195.13 46.7909 196.641 45.0704C196.998 44.6731 197.492 44.4259 198.024 44.3786C203.568 43.714 203.623 40.3731 202.822 37.0959L213.983 31.4427Z" fill="#7F3E3B"/>
<path opacity="0.2" d="M209.431 33.7642L202.831 37.1233C203.04 37.8991 203.159 38.6963 203.186 39.4993C205.589 39.4993 208.994 37.888 209.385 36.04C209.587 35.2965 209.602 34.5151 209.431 33.7642Z" fill="black"/>
<path d="M205.181 18.786C205.429 15.5022 203.643 12.6901 201.192 12.5049C198.74 12.3197 196.552 14.8316 196.304 18.1153C196.056 21.3991 197.842 24.2112 200.293 24.3964C202.745 24.5815 204.933 22.0697 205.181 18.786Z" fill="#263238"/>
<path d="M217.551 21.4928C216.331 28.6754 215.976 32.9448 211.989 36.2857C205.99 41.3017 197.569 37.0595 196.659 29.6585C195.831 23.004 197.961 12.3622 205.225 10.2138C212.49 8.06544 218.771 14.3012 217.551 21.4928Z" fill="#7F3E3B"/>
<path d="M215.985 27.5646C215.894 27.5646 215.785 27.4463 215.685 27.5009C212.426 29.3216 211.37 25.4072 211.57 22.8036C211.637 21.9351 211.887 21.0904 212.302 20.3249C212.718 19.5594 213.291 18.8902 213.983 18.3612C210.451 18.7617 207.028 16.4859 206.973 14.3648C203.068 16.0854 198.361 16.1855 196.24 12.5442C194.119 8.90284 197.151 4.14181 201.192 5.40717C199.554 2.4759 206.482 -3.38664 213.737 5.26152C213.964 -1.01067 224.106 5.26152 222.44 11.4245C227.137 13.0449 231.161 21.9661 223.195 23.8687C222.667 32.1345 215.985 27.5646 215.985 27.5646Z" fill="#263238"/>
<path d="M219.827 29.8224C218.724 31.1753 217.15 32.06 215.421 32.2985C213.236 32.5443 212.754 30.3231 213.873 28.3021C214.884 26.4815 217.232 24.1692 219.181 24.8793C221.129 25.5894 221.247 28.0928 219.827 29.8224Z" fill="#7F3E3B"/>
<path d="M207.137 22.0299C207.082 22.6307 206.727 23.0768 206.336 23.0404C205.944 23.004 205.671 22.4942 205.726 21.8934C205.781 21.2926 206.136 20.8556 206.527 20.892C206.918 20.9284 207.182 21.4382 207.137 22.0299Z" fill="#263238"/>
<path d="M200.082 21.2471C200.027 21.8388 199.672 22.2849 199.281 22.2484C198.889 22.212 198.625 21.7022 198.671 21.1105C198.716 20.5188 199.08 20.0637 199.472 20.1001C199.863 20.1365 200.173 20.6463 200.082 21.2471Z" fill="#263238"/>
<path d="M202.84 21.5839C201.97 23.3291 200.864 24.9464 199.554 26.3904C199.932 26.7196 200.376 26.9626 200.857 27.1025C201.338 27.2424 201.844 27.2759 202.339 27.2006L202.84 21.5839Z" fill="#630F0F"/>
<path d="M204.178 30.0953C204.839 30.1417 205.503 30.0535 206.129 29.836C206.755 29.6185 207.33 29.2762 207.82 28.83C207.836 28.8132 207.848 28.7935 207.857 28.7719C207.866 28.7502 207.87 28.7271 207.869 28.7039C207.869 28.6806 207.864 28.6577 207.855 28.6364C207.845 28.615 207.832 28.5958 207.815 28.5796C207.798 28.5635 207.779 28.5508 207.757 28.5423C207.735 28.5338 207.712 28.5296 207.689 28.5301C207.666 28.5305 207.643 28.5355 207.621 28.5448C207.6 28.5541 207.581 28.5674 207.565 28.5842C207.01 29.0747 206.348 29.4269 205.631 29.6121C204.914 29.7972 204.164 29.8099 203.441 29.6493C203.419 29.644 203.396 29.6434 203.373 29.6475C203.351 29.6516 203.329 29.6604 203.311 29.6733C203.292 29.6861 203.276 29.7028 203.264 29.7222C203.252 29.7415 203.244 29.7632 203.241 29.7858C203.232 29.8316 203.242 29.8787 203.267 29.9176C203.293 29.9566 203.332 29.9843 203.377 29.9952C203.669 30.0407 203.923 30.0771 204.178 30.0953Z" fill="#263238"/>
<path d="M209.467 20.5825C209.524 20.5957 209.583 20.5957 209.64 20.5825C209.683 20.5638 209.721 20.5369 209.752 20.5033C209.784 20.4697 209.809 20.4301 209.825 20.3868C209.841 20.3435 209.848 20.2975 209.846 20.2513C209.844 20.2052 209.833 20.16 209.813 20.1182C209.599 19.6032 209.267 19.1459 208.843 18.7837C208.419 18.4214 207.916 18.1644 207.374 18.0335C207.282 18.0203 207.189 18.0434 207.114 18.0978C207.039 18.1522 206.989 18.2337 206.973 18.3249C206.96 18.4164 206.983 18.5095 207.037 18.5843C207.092 18.6591 207.173 18.7097 207.264 18.7254C207.692 18.8356 208.087 19.0446 208.419 19.3355C208.751 19.6264 209.011 19.9911 209.176 20.4004C209.206 20.4519 209.249 20.4953 209.3 20.527C209.35 20.5586 209.408 20.5777 209.467 20.5825Z" fill="#263238"/>
<path d="M197.123 18.3431C197.18 18.3581 197.239 18.3594 197.296 18.3467C197.353 18.334 197.406 18.3078 197.451 18.2703C197.775 17.9763 198.165 17.7629 198.587 17.6475C199.009 17.532 199.453 17.5177 199.882 17.6057C199.97 17.631 200.064 17.6203 200.144 17.5759C200.225 17.5316 200.284 17.4572 200.309 17.3691C200.335 17.2797 200.325 17.184 200.28 17.1023C200.236 17.0206 200.162 16.9595 200.073 16.9321C199.531 16.8087 198.968 16.818 198.43 16.959C197.893 17.1001 197.398 17.3688 196.987 17.7423C196.954 17.7745 196.928 17.8127 196.911 17.8549C196.893 17.8971 196.884 17.9424 196.884 17.9881C196.884 18.0338 196.893 18.079 196.911 18.1212C196.928 18.1634 196.954 18.2017 196.987 18.2339C197.021 18.282 197.069 18.3197 197.123 18.3431Z" fill="#263238"/>
<path d="M230.56 56.8228C231.151 57.9789 231.634 58.9803 232.107 60.0635C232.581 61.1468 233.018 62.1937 233.491 63.2679C234.401 65.4163 235.193 67.6011 235.94 69.8132C237.458 74.2875 238.621 78.8747 239.417 83.5319L239.663 85.3526L239.791 86.2629V86.4814V86.8819C239.791 87.1732 239.836 87.4645 239.836 87.7923C239.801 89.4515 239.471 91.0913 238.862 92.6352C237.956 94.9928 236.802 97.2478 235.421 99.3626C234.167 101.342 232.809 103.254 231.352 105.089C229.924 106.915 228.405 108.668 226.8 110.341C226.339 110.829 225.718 111.136 225.05 111.205C224.382 111.274 223.711 111.101 223.16 110.717C222.609 110.333 222.214 109.765 222.047 109.114C221.879 108.464 221.951 107.775 222.248 107.173V107.1C224.133 103.177 226.126 99.2078 227.71 95.3389C228.12 94.374 228.484 93.409 228.803 92.4714C229.12 91.5958 229.384 90.7021 229.595 89.795C229.743 89.2311 229.795 88.6465 229.75 88.0654L229.704 87.8833L229.531 87.1277L229.194 85.6257C228.144 81.5491 226.858 77.5369 225.344 73.6093C224.615 71.6066 223.787 69.6311 222.986 67.6466C222.585 66.6635 222.157 65.6803 221.73 64.7062L220.455 61.866L220.382 61.7021C219.742 60.3622 219.661 58.8229 220.156 57.423C220.651 56.0231 221.682 54.8772 223.022 54.2374C224.362 53.5976 225.901 53.5163 227.301 54.0114C228.701 54.5065 229.847 55.5374 230.487 56.8774L230.56 56.8228Z" fill="#7F3E3B"/>
<path d="M222.367 46.5269C234.492 49.5856 237.842 65.0885 237.842 65.0885L222.786 75.8851C222.786 75.8851 219.053 71.9798 217.924 62.8036C217.405 58.4249 219.909 46.4085 222.367 46.5269Z" fill="#7A5DDA"/>
<path d="M224.233 105.243L217.223 107.865L222.594 115.057C222.594 115.057 228.648 111.916 227.501 108.43L224.233 105.243Z" fill="#7F3E3B"/>
<path d="M212.007 108.885C210.119 108.567 208.181 108.743 206.381 109.394L209.859 88.7299C210.128 87.1163 209.746 85.4619 208.797 84.1292C207.848 82.7966 206.41 81.8943 204.797 81.6202L144.351 71.4427C142.74 71.1763 141.09 71.5581 139.759 72.5047C138.429 73.4513 137.527 74.8858 137.251 76.4951L133.719 97.2051C135.517 96.5449 137.457 96.3691 139.345 96.6953C141.023 96.9769 142.614 97.6399 143.996 98.6332C145.378 99.6265 146.514 100.924 147.316 102.425C148.118 103.926 148.565 105.591 148.622 107.292C148.679 108.993 148.345 110.684 147.646 112.236C146.947 113.788 145.901 115.158 144.589 116.242C143.277 117.326 141.734 118.095 140.078 118.489C138.422 118.882 136.698 118.891 135.039 118.514C133.379 118.137 131.828 117.384 130.505 116.313L127.019 136.978C126.75 138.591 127.132 140.246 128.08 141.578C129.029 142.911 130.467 143.813 132.08 144.087L192.526 154.265C194.138 154.531 195.79 154.15 197.122 153.203C198.454 152.257 199.357 150.822 199.636 149.212L203.113 128.539C204.438 129.592 205.985 130.33 207.638 130.695C209.29 131.061 211.005 131.044 212.65 130.647C214.295 130.25 215.828 129.482 217.132 128.403C218.436 127.324 219.476 125.962 220.174 124.42C220.872 122.878 221.208 121.197 221.158 119.505C221.109 117.813 220.673 116.155 219.886 114.657C219.098 113.159 217.979 111.86 216.614 110.86C215.249 109.86 213.673 109.184 212.007 108.885Z" fill="#7A5DDA"/>
<path opacity="0.6" d="M212.007 108.885C210.119 108.567 208.181 108.743 206.381 109.394L209.859 88.7299C210.128 87.1163 209.746 85.4619 208.797 84.1292C207.848 82.7966 206.41 81.8943 204.797 81.6202L144.351 71.4427C142.74 71.1763 141.09 71.5581 139.759 72.5047C138.429 73.4513 137.527 74.8858 137.251 76.4951L133.719 97.2051C135.517 96.5449 137.457 96.3691 139.345 96.6953C141.023 96.9769 142.614 97.6399 143.996 98.6332C145.378 99.6265 146.514 100.924 147.316 102.425C148.118 103.926 148.565 105.591 148.622 107.292C148.679 108.993 148.345 110.684 147.646 112.236C146.947 113.788 145.901 115.158 144.589 116.242C143.277 117.326 141.734 118.095 140.078 118.489C138.422 118.882 136.698 118.891 135.039 118.514C133.379 118.137 131.828 117.384 130.505 116.313L127.019 136.978C126.75 138.591 127.132 140.246 128.08 141.578C129.029 142.911 130.467 143.813 132.08 144.087L192.526 154.265C194.138 154.531 195.79 154.15 197.122 153.203C198.454 152.257 199.357 150.822 199.636 149.212L203.113 128.539C204.438 129.592 205.985 130.33 207.638 130.695C209.29 131.061 211.005 131.044 212.65 130.647C214.295 130.25 215.828 129.482 217.132 128.403C218.436 127.324 219.476 125.962 220.174 124.42C220.872 122.878 221.208 121.197 221.158 119.505C221.109 117.813 220.673 116.155 219.886 114.657C219.098 113.159 217.979 111.86 216.614 110.86C215.249 109.86 213.673 109.184 212.007 108.885Z" fill="white"/>
<path d="M213.946 114.929L216.249 117.132C216.693 117.559 217.273 117.813 217.887 117.85C218.501 117.886 219.108 117.703 219.599 117.332L222.594 115.084L217.223 107.892L213.901 111.224C213.656 111.468 213.463 111.759 213.333 112.078C213.202 112.398 213.137 112.741 213.141 113.086C213.146 113.432 213.219 113.773 213.357 114.089C213.495 114.406 213.696 114.691 213.946 114.929Z" fill="#7F3E3B"/>
<path d="M146.463 73.3817L147.301 70.2775C147.441 69.9123 147.692 69.6002 148.018 69.3847C148.345 69.1692 148.731 69.0612 149.121 69.0759C150.307 69.0275 151.492 69.2099 152.608 69.6129L157.342 71.3608L157.114 73.2907C156.923 74.9475 155.075 76.3312 152.981 76.3949C151.576 76.4137 150.173 76.2639 148.803 75.9489L148.293 75.8396C148.003 75.8191 147.72 75.7362 147.465 75.5966C147.21 75.457 146.988 75.2639 146.814 75.0305C146.641 74.7971 146.519 74.529 146.459 74.2444C146.398 73.9599 146.4 73.6656 146.463 73.3817Z" fill="#7F3E3B"/>
<path d="M71.898 30.5324C74.9294 27.0094 79.4902 17.8606 70.9149 14.3649C64.588 11.7795 51.1607 13.0995 43.4501 25.1068C38.1793 26.9275 36.6227 38.6525 48.7938 41.1195C60.9649 43.5865 71.898 30.5324 71.898 30.5324Z" fill="#263238"/>
<path d="M99.3992 256.431L85.4893 257.587L87.847 273.937L99.472 272.99L99.3992 256.431Z" fill="#FFC3BD"/>
<path opacity="0.2" d="M99.3991 256.44L85.4802 257.596L86.8093 266.754L99.4447 265.707L99.3991 256.44Z" fill="black"/>
<path d="M72.8084 208.302C67.3464 187.364 53.1998 162.44 62.1666 142.294L101.138 142.176C101.138 142.176 102.103 183.641 102.376 203.168C102.649 223.587 100.947 262.003 100.947 262.003L85.0068 263.213C85.0068 263.213 74.0828 231.779 72.8084 208.302Z" fill="#7A5DDA"/>
<path d="M84.2148 263.841L101.438 262.576C101.585 262.563 101.723 262.499 101.826 262.393C101.93 262.288 101.992 262.15 102.003 262.002L102.367 255.63C102.373 255.542 102.359 255.453 102.327 255.37C102.295 255.288 102.245 255.214 102.18 255.153C102.116 255.092 102.039 255.046 101.955 255.018C101.87 254.991 101.781 254.982 101.693 254.993L82.5762 257.533C82.4893 257.542 82.4056 257.571 82.3311 257.616C82.2566 257.662 82.1931 257.724 82.1453 257.797C82.0974 257.87 82.0663 257.953 82.0542 258.039C82.0422 258.126 82.0495 258.214 82.0755 258.297L83.5867 263.413C83.6289 263.544 83.7136 263.658 83.8273 263.735C83.9411 263.813 84.0774 263.85 84.2148 263.841Z" fill="#263238"/>
<path opacity="0.2" d="M62.0301 162.112C61.8791 167.057 62.0799 172.006 62.6309 176.923C64.5335 183.505 66.9641 190.095 69.1489 196.486C72.0073 178.389 72.0164 157.296 62.0301 162.112Z" fill="black"/>
<path d="M47.9108 257.451L33.9463 257.587L33.9281 274.064L45.5985 273.973L47.9108 257.451Z" fill="#FFC3BD"/>
<path d="M32.8266 271.534C32.8403 271.442 32.8731 271.354 32.9228 271.276C32.9725 271.197 33.038 271.13 33.1152 271.079C33.1924 271.027 33.2795 270.993 33.3709 270.977C33.4623 270.961 33.5559 270.965 33.6459 270.987C37.1507 272.38 43.7961 271.315 46.3086 270.833C46.5859 270.775 46.8721 270.776 47.1492 270.834C47.4264 270.892 47.6887 271.006 47.9199 271.169C49.9751 272.488 52.202 273.517 54.538 274.228C55.0392 275.568 55.1651 277.019 54.9021 278.425H31.361C32.0252 276.169 32.5152 273.865 32.8266 271.534Z" fill="#263238"/>
<path d="M86.3086 271.534C86.3223 271.442 86.355 271.354 86.4048 271.276C86.4545 271.197 86.52 271.13 86.5972 271.079C86.6743 271.027 86.7614 270.993 86.8528 270.977C86.9442 270.961 87.0379 270.965 87.1279 270.987C90.6326 272.38 97.2781 271.315 99.7906 270.833C100.068 270.775 100.354 270.776 100.631 270.834C100.908 270.892 101.171 271.006 101.402 271.169C104.078 273.063 111.215 274.228 111.215 274.228C111.717 275.568 111.839 277.02 111.57 278.425H84.8429C85.5071 276.169 85.9971 273.865 86.3086 271.534Z" fill="#263238"/>
<path opacity="0.2" d="M47.9108 257.46L33.9372 257.587L33.9281 266.818L46.6181 266.709L47.9108 257.46Z" fill="black"/>
<path d="M31.98 201.529C30.0865 180.382 24.1511 151.898 30.8876 142.176H76.4952C76.4952 142.176 67.2007 184.342 63.3864 203.86C59.4265 224.151 48.0382 263.113 48.0382 263.113L32.9358 263.159C32.9358 263.159 27.2098 225.671 31.98 201.529Z" fill="#7A5DDA"/>
<path opacity="0.2" d="M34.7201 258.835C34.622 258.833 34.5268 258.801 34.4483 258.742C34.3698 258.683 34.312 258.601 34.2831 258.507C33.1998 254.865 33.3728 213.036 36.1038 201.584C36.1038 200.073 35.7852 197.105 35.421 193.345C34.1739 180.601 31.8616 156.932 35.3118 143.505C35.342 143.384 35.4189 143.28 35.5256 143.216C35.6323 143.152 35.76 143.133 35.8808 143.163C36.0015 143.193 36.1053 143.27 36.1693 143.377C36.2333 143.484 36.2523 143.611 36.2221 143.732C32.8084 157.014 35.1115 180.591 36.3496 193.263C36.7228 197.087 37.0232 200.1 37.0414 201.629C37.0459 201.669 37.0459 201.708 37.0414 201.748C34.4197 212.581 34.1648 254.729 35.2208 258.252C35.2549 258.367 35.2426 258.49 35.1863 258.596C35.1301 258.701 35.0346 258.781 34.9203 258.816C34.8567 258.842 34.7872 258.848 34.7201 258.835Z" fill="white"/>
<path d="M31.889 263.723H48.9941C49.1308 263.727 49.2643 263.681 49.3698 263.594C49.4753 263.507 49.5456 263.385 49.5676 263.25L50.6964 257.178C50.7127 257.086 50.7083 256.991 50.6835 256.901C50.6587 256.811 50.6142 256.728 50.5532 256.657C50.4921 256.587 50.4161 256.531 50.3307 256.493C50.2452 256.456 50.1525 256.438 50.0592 256.44L31.4338 257.269C31.3552 257.271 31.2779 257.289 31.2066 257.322C31.1354 257.356 31.0718 257.403 31.0197 257.462C30.9676 257.521 30.9282 257.59 30.9039 257.665C30.8796 257.74 30.871 257.819 30.8785 257.897L31.2608 263.14C31.2744 263.298 31.3462 263.445 31.4624 263.553C31.5785 263.661 31.7306 263.721 31.889 263.723Z" fill="#263238"/>
<path d="M91.9891 68.5206C92.8994 72.1619 93.7369 75.8032 94.5471 79.4445C95.3573 83.0859 96.122 86.7272 96.832 90.3685L97.9244 95.8305L98.944 101.293C99.6449 104.934 100.264 108.63 100.901 112.308L99.4174 108.985C99.6157 109.666 100.043 110.258 100.628 110.66C101.793 111.447 103.107 111.989 104.488 112.253C106.329 112.678 108.207 112.925 110.096 112.99C111.106 113.045 112.144 113.081 113.191 113.063C113.71 113.063 114.238 113.063 114.766 113.063C115.294 113.063 115.867 113.063 116.231 113.063L117.524 113.154C118.612 113.224 119.647 113.645 120.474 114.355C121.301 115.065 121.875 116.024 122.11 117.089C122.344 118.153 122.226 119.265 121.773 120.256C121.32 121.248 120.557 122.065 119.599 122.585C118.871 122.986 118.352 123.286 117.733 123.605C117.114 123.923 116.541 124.196 115.913 124.515C114.693 125.043 113.446 125.544 112.153 125.962C110.841 126.392 109.507 126.751 108.157 127.037C106.734 127.32 105.296 127.521 103.851 127.638C102.289 127.749 100.72 127.724 99.1625 127.565C97.4311 127.419 95.7248 127.058 94.0828 126.49C92.2408 125.877 90.4918 125.013 88.8848 123.923C87.1902 122.749 85.6805 121.329 84.406 119.709C83.8562 119.025 83.4477 118.239 83.2043 117.396L82.9221 116.386C81.9208 112.799 80.8921 109.222 79.9453 105.617L78.4979 100.227L77.1233 94.82C76.213 91.1787 75.3027 87.592 74.4743 83.9689C73.6459 80.3458 72.8175 76.6862 72.0983 73.0449C71.583 70.4393 72.1048 67.7354 73.5527 65.5087C75.0006 63.282 77.2603 61.7082 79.8509 61.1222C82.4416 60.5362 85.1586 60.9844 87.4238 62.3712C89.6891 63.758 91.3238 65.9741 91.9799 68.5479L91.9891 68.5206Z" fill="#FFC3BD"/>
<path d="M115.594 113.964L115.785 119.845C118.161 125.553 124.97 121.22 124.97 121.22L129.085 120.464C129.801 120.282 130.43 119.852 130.86 119.25C131.29 118.649 131.493 117.915 131.434 117.178L131.324 113.063C131.352 112.214 131.047 111.387 130.474 110.76C129.901 110.132 129.105 109.753 128.257 109.704L124.615 109.777C123.553 109.795 122.511 110.077 121.584 110.596L115.594 113.964Z" fill="#FFC3BD"/>
<path d="M85.0159 58.3794C93.391 62.7854 98.8621 78.3339 98.8621 78.3339C97.096 85.6166 89.9772 98.8983 83.3864 98.8164C83.3864 98.8164 73.7096 86.3357 72.6627 77.3052C71.3882 66.3904 68.0837 49.4764 85.0159 58.3794Z" fill="#263238"/>
<path d="M77.2781 55.7941C64.3531 54.5653 51.3317 54.7729 38.4524 56.4131C31.0059 57.46 25.7078 62.0936 26.6181 77.3508C28.4388 108.302 25.6168 132.426 29.5494 143.55C29.5494 143.55 86.8275 159.936 103.159 144.233C107.128 106.991 93.7642 76.0763 87.6832 63.2133C86.7309 61.188 85.2736 59.4417 83.4514 58.1423C81.6291 56.843 79.5032 56.0343 77.2781 55.7941Z" fill="#263238"/>
<path d="M72.9722 59.1805C71.4884 57.7239 69.9317 58.5706 69.2125 56.3767C68.8954 54.6544 69.185 52.8754 70.0318 51.3425L52.3623 41.8022C52.7082 48.302 52.9722 53.4363 50.0865 56.0216C49.249 60.8646 58.2795 65.6985 70.3049 65.7713C77.9608 65.8168 75.1115 61.2742 72.9722 59.1805Z" fill="#FFC3BD"/>
<path opacity="0.2" d="M69.7678 51.8888L55.8216 48.4022C59.3445 53.9461 65.6896 56.9775 69.1033 55.6394C69.0057 54.3532 69.2343 53.0632 69.7678 51.8888Z" fill="black"/>
<path d="M63.9963 20.0818C54.7656 18.0336 46.7911 25.6986 48.5753 34.0554C50.3596 42.4123 51.7706 48.0563 57.5512 50.8966C69.0396 56.5588 74.6472 51.0968 75.5849 42.3668C76.4315 34.5015 73.3637 22.1483 63.9963 20.0818Z" fill="#FFC3BD"/>
<path opacity="0.2" d="M62.1848 34.9202C61.1001 34.6487 59.9521 34.8155 58.9895 35.3844C60.0748 35.4417 61.1607 35.2839 62.1848 34.9202Z" fill="black"/>
<path opacity="0.2" d="M62.2485 35.694C61.7383 35.6701 61.2292 35.7588 60.7571 35.9539C60.2851 36.149 59.8619 36.4457 59.5175 36.8228C60.499 36.6493 61.4309 36.2641 62.2485 35.694Z" fill="black"/>
<path d="M49.7405 41.1195C54.9021 42.2757 57.0232 39.6903 57.0232 36.7955C57.0232 33.7185 54.1192 28.5205 50.9331 27.5647C52.071 20.7372 70.8876 30.2957 69.0942 20.8373C69.0942 20.8373 68.5844 19.2169 63.7232 18.3066C58.8621 17.3963 45.8716 20.3276 46.782 30.0408C47.6923 39.754 49.7405 41.1195 49.7405 41.1195Z" fill="#263238"/>
<path d="M43.1679 25.5893C44.4314 23.0542 44.7881 20.1626 44.1784 17.3964C44.1784 17.3964 49.8407 21.1378 43.1679 25.5893Z" fill="#263238"/>
<path d="M66.9094 43.714C67.2955 43.6849 67.6789 43.6271 68.0564 43.541C68.0858 43.5346 68.1136 43.5223 68.1382 43.5051C68.1628 43.4878 68.1837 43.4659 68.1998 43.4405C68.2159 43.4151 68.2268 43.3868 68.2319 43.3572C68.2369 43.3275 68.2361 43.2972 68.2294 43.2679C68.2241 43.2379 68.2127 43.2094 68.1958 43.1841C68.1788 43.1588 68.1568 43.1373 68.1311 43.121C68.1054 43.1048 68.0765 43.094 68.0464 43.0895C68.0163 43.085 67.9856 43.0869 67.9563 43.0949C67.0109 43.3256 66.0248 43.3321 65.0764 43.114C64.1281 42.8959 63.2439 42.4592 62.4943 41.8387C62.4731 41.8167 62.4476 41.7991 62.4195 41.7872C62.3913 41.7752 62.361 41.769 62.3304 41.769C62.2998 41.769 62.2696 41.7752 62.2414 41.7872C62.2133 41.7991 62.1878 41.8167 62.1666 41.8387C62.1243 41.8828 62.1007 41.9415 62.1007 42.0025C62.1007 42.0636 62.1243 42.1223 62.1666 42.1664C62.8152 42.7257 63.5684 43.1506 64.3827 43.4162C65.1969 43.6819 66.0557 43.7831 66.9094 43.714Z" fill="#263238"/>
<path d="M46.4725 41.5201C47.0632 42.3209 47.8064 42.997 48.6595 43.5095C49.5125 44.0219 50.4584 44.3606 51.4429 44.506C54.0919 44.8701 55.0842 42.4213 54.0646 40.1091C53.1543 38.0244 50.6782 35.3299 48.1657 36.0217C45.6532 36.7136 45.0341 39.5265 46.4725 41.5201Z" fill="#FFC3BD"/>
<path d="M63.6868 35.0113C63.7961 35.7487 64.2694 36.2949 64.7519 36.222C65.2344 36.1492 65.5439 35.4847 65.4347 34.7473C65.3254 34.0099 64.8612 33.4728 64.3787 33.5457C63.8962 33.6185 63.6231 34.2375 63.6868 35.0113Z" fill="#263238"/>
<path d="M72.3623 33.8461C72.4716 34.5925 72.9449 35.1296 73.4274 35.0568C73.9099 34.984 74.2194 34.3285 74.1102 33.5911C74.0009 32.8538 73.5366 32.3076 73.0542 32.3804C72.5717 32.4532 72.2622 33.1087 72.3623 33.8461Z" fill="#263238"/>
<path d="M69.0851 34.8201L69.5039 41.0649C69.5039 41.0649 71.5521 41.42 72.6627 40.2365C71.9577 38.1525 70.7252 36.2865 69.0851 34.8201Z" fill="#ED847E"/>
<path d="M60.8284 33.3272C60.7539 33.3474 60.6752 33.3472 60.6008 33.3264C60.5264 33.3056 60.4591 33.265 60.4059 33.209C60.3527 33.153 60.3156 33.0836 60.2987 33.0083C60.2817 32.9329 60.2854 32.8544 60.3095 32.781C60.4826 32.1042 60.8139 31.4783 61.276 30.9544C61.7381 30.4306 62.3178 30.0239 62.9677 29.7678C63.0775 29.7334 63.1965 29.7437 63.2988 29.7966C63.4011 29.8494 63.4784 29.9405 63.5139 30.05C63.5486 30.161 63.5385 30.2813 63.4858 30.385C63.433 30.4888 63.3419 30.5678 63.2317 30.6053C62.7186 30.8145 62.2623 31.1422 61.9 31.5614C61.5377 31.9807 61.2797 32.4797 61.147 33.0177C61.1264 33.093 61.086 33.1615 61.03 33.2159C60.9739 33.2703 60.9043 33.3088 60.8284 33.3272Z" fill="#263238"/>
<path d="M75.2116 30.5324C75.1397 30.539 75.0673 30.5265 75.0017 30.4961C74.9362 30.4658 74.8798 30.4186 74.8384 30.3594C74.5267 29.9072 74.111 29.5365 73.6263 29.2783C73.1415 29.0201 72.6019 28.882 72.0528 28.8756C71.932 28.8756 71.8163 28.8276 71.7309 28.7422C71.6456 28.6569 71.5976 28.5411 71.5976 28.4204C71.5976 28.2997 71.6456 28.1839 71.7309 28.0985C71.8163 28.0132 71.932 27.9652 72.0528 27.9652C72.7463 27.9597 73.4308 28.1225 74.0475 28.4396C74.6643 28.7567 75.1949 29.2186 75.594 29.7859C75.6274 29.8325 75.6514 29.8853 75.6645 29.9412C75.6776 29.997 75.6796 30.055 75.6703 30.1116C75.661 30.1682 75.6406 30.2225 75.6103 30.2713C75.58 30.32 75.5404 30.3623 75.4938 30.3958C75.4587 30.4368 75.4155 30.4701 75.367 30.4936C75.3184 30.5171 75.2655 30.5303 75.2116 30.5324Z" fill="#263238"/>
<path d="M128.257 90.0681C126.351 90.2025 124.513 90.8299 122.922 91.8888L121.274 70.9512C121.14 69.3225 120.366 67.8132 119.123 66.7524C117.88 65.6917 116.268 65.1656 114.638 65.2889L53.5275 70.1046C51.8998 70.2416 50.3919 71.0156 49.3316 72.2582C48.2713 73.5009 47.7444 75.1118 47.8653 76.7409L52.69 137.851C52.8201 139.482 53.5921 140.994 54.8364 142.056C56.0808 143.118 57.6957 143.642 59.3264 143.514L120.428 138.689C122.058 138.556 123.57 137.784 124.632 136.541C125.695 135.297 126.222 133.684 126.099 132.053L124.442 111.161C126.177 111.974 128.095 112.319 130.005 112.162C132.747 111.7 135.218 110.228 136.929 108.035C138.64 105.842 139.467 103.087 139.248 100.315C139.028 97.5419 137.778 94.9519 135.744 93.0552C133.709 91.1585 131.038 90.0928 128.257 90.0681Z" fill="#7A5DDA"/>
<path d="M39.645 81.7113L38.7346 83.3863L37.6878 85.2616C37.0141 86.536 36.3223 87.8105 35.6941 89.1032C34.4319 91.6219 33.3015 94.2047 32.3077 96.841C31.8252 98.1154 31.3974 99.3808 31.0787 100.628C30.7153 101.822 30.4294 103.038 30.223 104.269C29.841 106.249 29.7765 108.277 30.0319 110.277L27.9381 106.636C28.8098 107.832 29.8491 108.896 31.0241 109.795C32.5686 111.028 34.1892 112.162 35.8762 113.191C37.6331 114.319 39.5175 115.403 41.411 116.486L44.3059 118.097C45.2162 118.643 46.3086 119.19 47.1734 119.718L47.6104 119.982C48.5768 120.567 49.3238 121.454 49.7365 122.506C50.1491 123.558 50.2045 124.717 49.894 125.803C49.5836 126.89 48.9245 127.844 48.0184 128.52C47.1123 129.195 46.0093 129.553 44.8794 129.54C43.4957 129.54 42.3122 129.449 41.0378 129.349C39.7633 129.249 38.5526 129.094 37.3145 128.894C34.7983 128.516 32.3082 127.981 29.8589 127.292C27.2667 126.565 24.7394 125.624 22.3031 124.479C19.4232 123.152 16.7765 121.369 14.4652 119.199C13.6335 118.406 13.0085 117.421 12.6445 116.331L12.3896 115.548C10.9642 111.225 10.4315 106.657 10.8239 102.121C11.1331 98.1699 11.8905 94.2668 13.0815 90.4868C14.1905 86.9351 15.566 83.4721 17.1962 80.1273C17.9882 78.4887 18.7984 76.8683 19.7087 75.2934C20.1548 74.5014 20.619 73.7094 21.0924 72.9266L21.8389 71.7431L22.2303 71.1423L22.7037 70.4414C24.1662 68.2284 26.4342 66.6732 29.0254 66.1064C31.6167 65.5396 34.3269 66.0059 36.5797 67.4062C38.8325 68.8065 40.4503 71.0303 41.089 73.6048C41.7277 76.1793 41.337 78.9014 40 81.1924L39.645 81.7113Z" fill="#FFC3BD"/>
<path d="M32.5353 58.3796C17.442 66.4451 11.8161 84.4606 11.8161 84.4606C14.802 90.1502 32.8084 96.2949 39.5812 94.6199C39.5812 94.6199 46.0719 82.7856 47.4101 72.2075C48.6481 62.4032 41.3746 53.655 32.5353 58.3796Z" fill="#263238"/>
<path d="M43.0951 120.719L43.4046 126.6C45.8989 132.262 52.6172 127.792 52.6172 127.792L56.7228 126.955C57.435 126.758 58.0545 126.316 58.4712 125.706C58.8878 125.096 59.0747 124.358 58.9986 123.623L58.8166 119.517C58.8389 118.663 58.5255 117.833 57.9435 117.207C57.3615 116.581 56.5572 116.208 55.7032 116.167L52.0619 116.313C50.9975 116.362 49.962 116.674 49.0487 117.223L43.0951 120.719Z" fill="#FFC3BD"/>
</svg>
