<svg width="386" height="259" viewBox="0 0 386 259" fill="none" xmlns="http://www.w3.org/2000/svg">
<path d="M287.634 103.696L204.789 30.3417C196 22.5599 184.48 18.5878 172.763 19.3002C161.045 20.0125 150.091 25.3498 142.31 34.138L105.633 75.5603" stroke="white" stroke-width="23.2271" stroke-linecap="round" stroke-linejoin="round"/>
<path d="M101.836 13.0803L105.632 75.5597L168.112 71.7635" stroke="white" stroke-width="23.2271" stroke-linecap="square"/>
<path d="M98.867 156.034L181.712 229.388C190.5 237.17 202.02 241.142 213.738 240.43C225.455 239.717 236.41 234.38 244.191 225.592L280.868 184.17" stroke="white" stroke-width="23.2271" stroke-linecap="round" stroke-linejoin="round"/>
<path d="M284.665 246.649L280.869 184.17L218.389 187.966" stroke="white" stroke-width="23.2271" stroke-linecap="square"/>
<path d="M302.304 87.127L272.962 120.265C264.86 129.416 265.709 143.402 274.86 151.505L307.998 180.846C317.149 188.949 331.135 188.099 339.238 178.948L368.579 145.81C376.682 136.659 375.832 122.673 366.681 114.57L333.543 85.2289C324.393 77.1265 310.406 77.976 302.304 87.127Z" stroke="#7A5DDA" stroke-width="23.2271" stroke-linecap="round" stroke-linejoin="round"/>
<path d="M84.1966 172.603L113.538 139.465C121.641 130.314 120.791 116.328 111.64 108.225L78.5022 78.8838C69.3512 70.7812 55.3649 71.6313 47.2625 80.782L17.9209 113.92C9.81821 123.071 10.668 137.057 19.819 145.16L52.9569 174.501C62.1075 182.604 76.0939 181.754 84.1966 172.603Z" stroke="#7A5DDA" stroke-width="23.2271" stroke-linecap="round" stroke-linejoin="round"/>
</svg>
