<svg width="166" height="39" viewBox="0 0 166 39" fill="none" xmlns="http://www.w3.org/2000/svg">
<path d="M32.8002 16.5794L23.4289 8.19947C22.4348 7.31047 21.1282 6.85279 19.7966 6.9272C18.4649 7.00161 17.2174 7.60189 16.3285 8.59599L12.1385 13.2816" stroke="white" stroke-width="2.63889" stroke-linecap="round" stroke-linejoin="round"/>
<path d="M11.7419 6.18107L12.1384 13.2815L19.2389 12.885" stroke="white" stroke-width="2.63889" stroke-linecap="square"/>
<path d="M11.3249 22.4206L20.6962 30.8006C21.6904 31.6896 22.9969 32.1472 24.3286 32.0728C25.6602 31.9984 26.9077 31.3981 27.7967 30.404L31.9866 25.7184" stroke="white" stroke-width="2.63889" stroke-linecap="round" stroke-linejoin="round"/>
<path d="M32.3832 32.8189L31.9867 25.7184L24.8862 26.115" stroke="white" stroke-width="2.63889" stroke-linecap="square"/>
<path d="M34.476 14.7052L31.124 18.4537C30.1984 19.4888 30.2871 21.0783 31.3222 22.004L35.0707 25.3559C36.1059 26.2816 37.6954 26.1928 38.621 25.1577L41.973 21.4092C42.8986 20.374 42.8098 18.7846 41.7747 17.8589L38.0262 14.507C36.9911 13.5813 35.4016 13.6701 34.476 14.7052Z" stroke="#7A5DDA" stroke-width="2.63889" stroke-linecap="round" stroke-linejoin="round"/>
<path d="M9.64898 24.2948L13.001 20.5463C13.9266 19.5112 13.8378 17.9217 12.8027 16.9961L9.05419 13.6441C8.01904 12.7184 6.42957 12.8072 5.50396 13.8424L2.15198 17.5909C1.22633 18.626 1.3151 20.2154 2.35024 21.1411L6.09874 24.4931C7.13385 25.4187 8.72333 25.33 9.64898 24.2948Z" stroke="#7A5DDA" stroke-width="2.63889" stroke-linecap="round" stroke-linejoin="round"/>
<path d="M57.9979 31.467V7.91493H68.7184C73.5344 7.91493 75.9424 10.0205 75.9424 14.2318C75.9424 17.0796 74.0677 19.4381 70.3183 21.3073L77.7896 31.5H72.2809L65.1065 21.2248V19.2292C69.2847 18.5145 71.3738 16.8927 71.3738 14.3637C71.3738 12.6264 70.3952 11.7578 68.438 11.7578H62.4511V31.467H57.9979ZM96.0144 7.91493V11.6753H84.2054V17.6128H95.4537V21.5217H84.1559V27.7066H96.2453V31.5H79.8677V7.91493H96.0144ZM107.708 21.1094V24.5729H99.4615V21.1094H107.708ZM111.831 31.5V7.91493H122.387C127.203 7.91493 129.611 10.1305 129.611 14.5616C129.611 19.3666 126.318 22.2749 119.731 23.2865L119.105 19.3941C123.063 18.6794 125.042 17.1126 125.042 14.6936C125.042 12.7364 124.064 11.7578 122.106 11.7578H116.202V31.5H111.831ZM136.884 7.91493V31.5H132.514V7.91493H136.884ZM157.27 7.91493V11.7083H150.507V31.5H146.137V11.7083H139.375V7.91493H157.27Z" fill="white"/>
<path d="M163.306 27.4592V31.5H158.935V27.4592H163.306Z" fill="#7A5DDA"/>
</svg>
