<svg width="104" height="104" viewBox="0 0 104 104" fill="none" xmlns="http://www.w3.org/2000/svg">
<path d="M58.575 8.01938C57.955 6.8092 57.013 5.79361 55.8529 5.08443C54.6928 4.37525 53.3594 4 51.9997 4C50.6399 4 49.3065 4.37525 48.1464 5.08443C46.9863 5.79361 46.0443 6.8092 45.4244 8.01938L4.79033 89.2874C4.22359 90.4119 3.95377 91.6626 4.00647 92.9216C4.05918 94.1797 4.43267 95.4032 5.09148 96.4767C5.75029 97.5501 6.67254 98.4374 7.77068 99.0536C8.86875 99.6705 10.1062 99.9963 11.3657 100H92.6335C93.8931 99.9963 95.1306 99.6705 96.2285 99.0536C97.3271 98.4374 98.2491 97.5501 98.9081 96.4767C99.5664 95.4032 99.9402 94.1797 99.9927 92.9216C100.046 91.6626 99.7755 90.4119 99.2088 89.2874L58.575 8.01938Z" stroke="#E5342F" stroke-width="7.388" stroke-linecap="round" stroke-linejoin="round"/>
<path d="M51.999 37.2026V61.2136" stroke="#E5342F" stroke-width="7.388" stroke-linecap="round" stroke-linejoin="round"/>
<path d="M51.9993 81.5309C50.9793 81.5309 50.1523 80.7042 50.1523 79.6839C50.1523 78.6636 50.9793 77.8369 51.9993 77.8369" stroke="#E5342F" stroke-width="7.388" stroke-linecap="round" stroke-linejoin="round"/>
<path d="M52 81.5309C53.0201 81.5309 53.847 80.7042 53.847 79.6839C53.847 78.6636 53.0201 77.8369 52 77.8369" stroke="#E5342F" stroke-width="7.388" stroke-linecap="round" stroke-linejoin="round"/>
</svg>
