<svg width="19" height="19" viewBox="0 0 19 19" fill="none" xmlns="http://www.w3.org/2000/svg">
<path d="M1 16.22V2.78051C1 2.44104 1.13485 2.11548 1.37489 1.87544C1.61493 1.6354 1.94049 1.50054 2.27996 1.50054H7.00301C7.29539 1.49203 7.58189 1.58391 7.81478 1.76091C8.04765 1.9379 8.2129 2.18932 8.28297 2.47332L8.67976 4.06047H16.3595C16.699 4.06047 17.0246 4.19531 17.2646 4.43536C17.5046 4.6754 17.6395 5.00096 17.6395 5.34043V16.22C17.6395 16.5596 17.5046 16.8851 17.2646 17.1251C17.0246 17.3652 16.699 17.5 16.3595 17.5H2.27996C1.94049 17.5 1.61493 17.3652 1.37489 17.1251C1.13485 16.8851 1 16.5596 1 16.22Z" stroke="white" stroke-width="1.5" stroke-linecap="round" stroke-linejoin="round"/>
</svg>
